<?xml version="1.0" encoding="utf-8"?>
<!-- Generator: Adobe Illustrator 27.5.0, SVG Export Plug-In . SVG Version: 6.00 Build 0)  -->
<svg version="1.1" xmlns="http://www.w3.org/2000/svg" xmlns:xlink="http://www.w3.org/1999/xlink" x="0px" y="0px"
	 viewBox="0 0 750 500" style="enable-background:new 0 0 750 500;" xml:space="preserve">
<g id="BACKGROUND">
	<rect style="fill:#FFFFFF;" width="750" height="500"/>
</g>
<g id="OBJECTS">
	<g>
		<g>
			<path style="fill:#D7E5E6;" d="M681.936,356.304c-4.659-7.236-11.802-12.852-15.248-20.739
				c-7.371-16.871,4.654-37.298-1.875-54.513c-3.929-10.36-14.137-17.403-24.911-19.986c-10.775-2.583-22.099-1.306-32.962,0.876
				c-27.151,5.455-56.178,16.292-81.336,4.716c-28.85-13.274-39.035-49.977-62.821-71.018c-8.251-7.299-19.598-10.975-30.562-9.902
				c-26.274,2.572-44.029,29.448-69.561,36.156c-27.326,7.179-56.282-10.38-83.936-4.586c-19.525,4.091-34.986,19.309-45.647,36.171
				c-10.661,16.862-17.625,35.787-27.451,53.148c-9.826,17.362-23.453,33.794-42.173,40.687
				c-25.185,9.274-56.997,0.559-77.228,18.195c-9.392,8.187-14.106,20.821-14.702,33.266c-0.596,12.445,2.551,24.788,6.778,36.508
				h597.747c4.938-11.239,9.605-31.354,11.651-43.458C689.745,379.723,688.582,366.625,681.936,356.304z"/>
			<path style="fill:#D7E5E6;" d="M682.631,326.016c0.503,2.895,1.179,5.792,2.426,8.186c1.247,2.394,3.147,4.241,5.237,4.378
				c2.346,0.154,4.496-1.796,6.306-3.928c2.51-2.956,4.764-6.502,6.046-10.769c1.412-4.703,1.56-9.987,1.276-15.087
				c-0.596-10.675-6.832-28.871-16.479-21.568C679.358,293.349,680.868,315.858,682.631,326.016z"/>
			<path style="fill:#D7E5E6;" d="M683.785,263.14c-2.686,2-8.068-0.684-12.021-5.993c-3.953-5.31-4.979-11.235-2.293-13.235
				c2.686-2,8.068,0.684,12.021,5.993C685.445,255.215,686.472,261.14,683.785,263.14z"/>
			<path style="fill:#D7E5E6;" d="M205.558,282.644c-2.633,2.793-5.783,5.34-9.543,6.112c-3.76,0.772-8.195-0.72-9.808-4.203
				c-0.617-1.333-0.784-2.831-0.809-4.299c-0.185-11.109,7.445-21.177,16.921-26.978c3.65-2.234,7.966-4.017,12.131-3.037
				c3.036,0.714,6.18,8.681,3.323,14.058C214.279,270.872,210.74,277.147,205.558,282.644z"/>
			<path style="fill:#D7E5E6;" d="M288.266,203.497c0,2.843-3.576,5.148-7.988,5.148c-4.412,0-7.988-2.305-7.988-5.148
				c0-2.843,3.576-5.148,7.988-5.148C284.69,198.349,288.266,200.654,288.266,203.497z"/>
			<path style="fill:#D7E5E6;" d="M313.984,205.977c0,1.763-2.531,3.192-5.652,3.192c-3.122,0-5.652-1.429-5.652-3.192
				c0-1.763,2.531-3.192,5.652-3.192C311.453,202.785,313.984,204.214,313.984,205.977z"/>
		</g>
		<g>
			<path style="fill:#53A097;" d="M609.362,428.381c0,0-1.014-24.342,7.708-35.297c0,0,13.794,18.865,13.794,28.4
				C630.864,431.018,609.362,428.381,609.362,428.381z"/>
			<g>
				<path style="fill:#78D097;" d="M108.688,427.853c0,0-61.824-31.132-61.824-124.192c0,0,55.543,10.361,66.718,56.238
					S108.688,427.853,108.688,427.853z"/>
				<path style="fill:#408797;" d="M112.559,409.734c-5.602-10.735-12.625-23.189-19.857-35.594
					c0.648-1.9,4.202-12.507,4.202-16.874h-1.366c0,3.564-2.652,11.968-3.753,15.304c-4.423-7.566-8.903-15.083-13.167-22.154
					c0.677-1.723,3.395-8.866,3.762-13.456l-1.362-0.109c-0.299,3.738-2.321,9.486-3.296,12.082
					c-6.547-10.836-12.527-20.532-16.925-27.602c0.188-0.674,1.451-5.253,2.026-8.324l-0.671-0.125c0,0,0,0,0,0v0l-0.671-0.125
					c-0.412,2.196-1.208,5.271-1.669,6.992c-3.915-6.284-6.351-10.13-6.447-10.281l-1.154,0.731
					c0.145,0.228,5.611,8.858,13.452,21.592c-2.093-1.208-5.409-3.016-8.552-4.272l-0.253,0.633c0,0,0,0,0,0l0,0l-0.253,0.634
					c4.971,1.988,10.423,5.408,10.477,5.441l0.04-0.064c4.831,7.864,10.438,17.087,16.205,26.769
					c-3.222-0.316-11.459-1.214-15.258-2.48l-0.216,0.648h0c0,0,0,0,0,0l-0.216,0.648c4.503,1.5,14.551,2.458,16.556,2.638
					c4.291,7.219,8.652,14.663,12.83,21.966c-3.329-0.089-12.845-0.495-18.372-2.284l-0.42,1.299
					c6.364,2.06,17.379,2.335,19.583,2.37c4.934,8.652,9.588,17.069,13.533,24.63L112.559,409.734z"/>
			</g>
			<g>
				<path style="fill:#53A097;" d="M108.765,425.917c0,0,3.296-26.076,20.928-45.636c17.632-19.56,21.263-22.01,23.717-25.412
					c0,0-4.374,47.286-18.685,59.878C120.414,427.339,108.765,425.917,108.765,425.917z"/>
				<path style="fill:#40D097;" d="M141.776,377.099c2.981-5.159,5.005-8.322,5.049-8.392l-0.861-0.555
					c-0.031,0.048-0.976,1.526-2.511,4.082l-0.446-1.432l-0.978,0.304l0.719,2.307c-1.372,2.31-3.1,5.292-5.018,8.77
					c-0.47-0.901-0.901-1.824-1.248-2.777l-0.963,0.352c0.441,1.207,0.992,2.379,1.619,3.503c-1.201,2.196-2.465,4.572-3.758,7.087
					l-0.173,0.083l0.063,0.131c-0.758,1.477-1.523,3.001-2.291,4.564c-0.535-1.014-0.923-2.095-1.136-3.23
					c-0.117-0.622-0.183-1.251-0.249-1.881c-0.078-0.743-0.159-1.51-0.321-2.265l-1.002,0.216c0.151,0.702,0.225,1.407,0.305,2.155
					c0.069,0.658,0.139,1.314,0.261,1.963c0.278,1.479,0.816,2.878,1.594,4.163c-1.061,2.186-2.12,4.44-3.157,6.745l0.934,0.421
					c1.944-4.319,3.965-8.463,5.928-12.294l6.044-2.899l-0.443-0.923l-4.823,2.313c2.262-4.354,4.42-8.253,6.263-11.471
					c0.036,0,0.071,0.001,0.107,0.001c1.226,0,2.457-0.072,3.665-0.216l-0.121-1.016
					C143.82,377.031,142.798,377.083,141.776,377.099z"/>
			</g>
			<path style="fill:#61BB97;" d="M444.722,367.167c2.168,25.966,10.503,58.798,10.503,58.798l17.032-0.147
				C462.735,394.758,444.722,367.167,444.722,367.167z"/>
			<g>
				<g>
					<path style="fill:#61BB97;" d="M525.008,430.066l5.963,1.136c27.26-14.482,34.643-92.287,34.643-92.287
						S523.872,368.162,525.008,430.066z"/>
					<path style="fill:#78D097;" d="M527.58,430.556l3.391,0.646c27.133-14.414,34.573-91.55,34.642-92.27L527.58,430.556z"/>
				</g>
				<path style="fill:#53A097;" d="M532.208,385.89c4.058-11.032,9.327-20.072,14.481-27.168c0.54-5.723,0.621-12.887-1.389-17.918
					c0,0-14.987,35.601-13.094,45.079C532.207,385.885,532.207,385.887,532.208,385.89z"/>
			</g>
			<g>
				<g>
					<path style="fill:#78D097;" d="M303.071,393.311c-0.792,0.037-1.64,0.161-2.218,0.704c-0.482,0.453-0.698,1.17-0.545,1.814
						c0.194,0.819,0.906,1.413,1.644,1.817c1.604,0.878,3.503,1.142,5.318,0.917c1.269-0.157,6.451-1.496,3.809-3.407
						C308.972,393.633,305.585,393.195,303.071,393.311z"/>
					<path style="fill:#78D097;" d="M326.37,402.759c0,0,5.625-17.133,10.297-13.672S329.225,402.672,326.37,402.759z"/>
					<path style="fill:#78D097;" d="M314.412,380.322c0,0,8.905-3.699,7.398-10.96C320.302,362.102,314.138,374.705,314.412,380.322
						z"/>
					<path style="fill:#78D097;" d="M302.402,382.007c0,0-8.95-3.877-11.553-0.178C288.246,385.528,298.429,383.925,302.402,382.007
						z"/>
					<path style="fill:#78D097;" d="M305.468,377.477c0,0-9.897-18.05-15.472-18.19c-5.576-0.139-1.55,7.614,0,9.13
						C296.269,374.55,305.468,377.477,305.468,377.477z"/>
				</g>
				<path style="fill:#408797;" d="M330.938,397.525l-0.658-0.784c-3.068,2.568-6,9.114-7.077,11.696
					c-1.084-2.892-2.31-5.9-3.706-8.953l0.091-0.072c-0.019-0.025-0.107-0.129-0.255-0.281c-1.925-4.175-4.16-8.41-6.73-12.499
					c0.451-1.785,2.435-9.04,5.652-12.331l-0.732-0.715c-3.017,3.085-4.932,9.165-5.671,11.871
					c-4.378-6.742-9.694-13.015-16.123-17.824l-0.613,0.819c4.91,3.674,9.169,8.215,12.848,13.172
					c-2.266-0.207-7.316-0.468-10.852,0.21l0.193,1.006c4.262-0.817,10.625-0.223,11.451-0.107c0.955,1.332,1.878,2.684,2.753,4.061
					c-0.001,0.003-0.003,0.013-0.004,0.015l0.015,0.003c2.27,3.574,4.271,7.269,6.037,10.942c-1.908-1.177-5.27-2.504-10.597-2.257
					l0.049,1.024c7.141-0.352,10.554,2.331,11.492,3.234c7.715,16.811,10.456,32.537,10.501,32.801l1.01-0.171
					c-0.035-0.209-1.752-10.068-6.279-22.526C323.791,409.711,327.372,400.512,330.938,397.525z"/>
				<g>
					<path style="fill:#408797;" d="M327.601,426.418c-0.161-0.18-16.273-18.143-32.359-22.552l0.362-1.318
						c16.479,4.517,32.35,22.212,33.018,22.963L327.601,426.418z"/>
					<path style="fill:#408797;" d="M314.97,421.259l-0.208-1.35c1.841-0.284,3.606-0.875,5.246-1.754l0.646,1.203
						C318.877,420.311,316.965,420.951,314.97,421.259z"/>
					<path style="fill:#408797;" d="M314.98,414.747c-0.04-1.546-0.454-3.078-1.198-4.43l1.196-0.659
						c0.849,1.544,1.321,3.291,1.367,5.055L314.98,414.747z"/>
					<path style="fill:#408797;" d="M305.625,414.034l-0.318-1.328c0.478-0.115,1.014-0.232,1.576-0.356
						c1.667-0.367,3.557-0.783,4.867-1.314l0.512,1.267c-1.416,0.573-3.365,1.002-5.085,1.38
						C306.623,413.804,306.096,413.92,305.625,414.034z"/>
					<path style="fill:#408797;" d="M305.081,408.067c-0.104-0.79-0.419-3.191-1.307-4.185l1.018-0.909
						c1.037,1.159,1.423,3.236,1.643,4.916L305.081,408.067z"/>
					
						<rect x="296.624" y="406.191" transform="matrix(0.8933 -0.4496 0.4496 0.8933 -150.9801 177.9128)" style="fill:#408797;" width="5.03" height="1.365"/>
					<path style="fill:#408797;" d="M297.848,403.782l-1.363-0.091l0.681,0.045l-0.681-0.043c0.001-0.017,0.087-1.726-1.064-3.21
						l1.079-0.838C297.98,401.554,297.854,403.692,297.848,403.782z"/>
				</g>
			</g>
			<g>
				<path style="fill:#78D097;" d="M626.054,431.081L626.054,431.081c0.964,6.691,15.281,8.774,37.418-10.221
					c22.137-18.995,40.57-92.899,40.57-92.899c-26.93,10.774-46.573,31.934-59.2,49.706
					C633.702,393.343,627.3,411.889,626.054,431.081z"/>
				<path style="fill:#408797;" d="M678.992,362.601c0.271-0.003,6.65-0.088,9.517-1.801l-0.701-1.174
					c-1.928,1.153-5.952,1.482-7.826,1.574c8.347-11.348,14.563-19.044,14.714-19.231l-1.062-0.859
					c-0.102,0.126-2.966,3.674-7.372,9.438c-1.057-1.644-2.287-3.931-2.175-4.913l-1.358-0.155c-0.2,1.743,1.85,5.016,2.653,6.221
					c-3.55,4.666-7.965,10.599-12.719,17.29c-0.404-2.5-1.338-8.379-1.536-10.495l-1.36,0.128
					c0.259,2.747,1.678,11.382,1.738,11.747l0.207-0.034c-5.37,7.602-11.097,16.08-16.422,24.699
					c-1.091-3.129-3.356-10.298-3.241-15.581l-1.366-0.029c-0.137,6.294,2.842,14.818,3.689,17.109
					c-5.192,8.494-9.949,17.07-13.524,25.007l1.246,0.56c5.383-11.953,13.458-25.371,21.675-37.763
					c0.691-0.119,9.036-1.583,15.625-3.856l-0.445-1.291c-5.158,1.78-11.43,3.058-14.127,3.567
					c4.893-7.317,9.788-14.221,14.168-20.207L678.992,362.601z"/>
			</g>
			<g>
				<path style="fill:#408797;" d="M613.179,426.669l-0.987-0.272c0.256-0.927,26.009-93.009,61.897-117.891l0.584,0.843
					C639.087,334.02,613.434,425.746,613.179,426.669z"/>
				<path style="fill:#53A097;" d="M637.873,359.46c0,0-0.318-13.697-4.141-13.379C629.909,346.4,637.873,359.46,637.873,359.46z"/>
				<path style="fill:#78D097;" d="M629.272,378.572c-0.487,0.822,17.361-3.982,17.679-9.078
					C647.27,364.397,631.821,374.272,629.272,378.572z"/>
				<path style="fill:#78D097;" d="M624.013,392.14c0,0-0.17-9.401-3.307-9.907C617.57,381.727,624.013,392.14,624.013,392.14z"/>
				<path style="fill:#53A097;" d="M621.038,401.348c0,0,15.753-0.997,15.852-5.882C636.99,390.581,626.82,394.868,621.038,401.348z
					"/>
				<path style="fill:#78D097;" d="M643.163,349.248c0,0,15.845-0.413,15.432-5.511
					C658.181,338.639,643.163,349.248,643.163,349.248z"/>
				<path style="fill:#53A097;" d="M651.114,335.755c0-0.347-0.116-14.327-4.159-13.403
					C642.91,323.277,651.114,335.755,651.114,335.755z"/>
				<path style="fill:#53A097;" d="M660.126,323.046c0,0,10.283,3.12,11.785-0.231C673.413,319.464,662.668,321.197,660.126,323.046
					z"/>
				<path style="fill:#78D097;" d="M667.289,314.38c0,0,0.809-11.785-3.928-10.514C658.624,305.137,667.289,314.38,667.289,314.38z"
					/>
				<path style="fill:#78D097;" d="M673.413,309.412c0,0,10.861-6.239,11.438-1.618
					C685.429,312.416,675.724,310.914,673.413,309.412z"/>
				<path style="fill:#53A097;" d="M673.99,308.719c0,0,4.391-9.821,0.347-10.052C670.293,298.436,673.99,308.719,673.99,308.719z"
					/>
			</g>
			<path style="fill:#408797;" d="M199.059,365.757c0.514,25.105,4.138,60.208,4.138,60.208h16.047
				C217.242,413.453,199.059,365.757,199.059,365.757z"/>
			<path style="fill:#408797;" d="M394.641,425.965l15.691,0.453c4.483-4.745,5.479-26.772,5.479-26.772
				C407.241,404.807,394.641,425.965,394.641,425.965z"/>
			<path style="fill:#78D097;" d="M472.258,425.818c-9.523-31.06-27.536-58.651-27.536-58.651c0.122,1.458,0.266,2.941,0.424,4.435
				l20.187,54.275L472.258,425.818z"/>
		</g>
		<g>
			<g>
				<rect x="194.649" y="297.128" style="fill:#40AD97;" width="106.335" height="13.292"/>
				<polygon style="fill:#40AD97;" points="282.431,427.159 213.203,427.159 205.153,310.42 290.482,310.42 				"/>
				<g>
					<polygon style="fill:#E1D6E6;" points="227.082,395.87 244.891,395.87 244.891,388.676 230.75,388.676 					"/>
					<polygon style="fill:#FFFFFF;" points="241.535,382.703 237.681,367.598 223.193,373.352 229.335,376.483 222.185,390.508 
						227.082,395.87 235.392,379.571 					"/>
					<polygon style="fill:#FFFFFF;" points="258.726,385.435 249.476,393.568 258.726,401.701 258.726,396.254 270.697,396.254 
						273.18,390.882 258.726,390.882 					"/>
					<polygon style="fill:#E1D6E6;" points="273.18,390.882 267.996,379.152 260.816,379.152 265.766,390.882 					"/>
					<polygon style="fill:#E1D6E6;" points="235.987,361.479 243.54,361.479 249.28,353.703 246.435,347.452 					"/>
					<polygon style="fill:#FFFFFF;" points="247.629,365.316 260.65,371.167 264.788,357.505 259.042,360.121 252.68,347.398 
						246.435,347.452 253.375,362.7 					"/>
				</g>
				<rect x="198.496" y="310.42" style="fill:#40D097;" width="98.641" height="7.923"/>
				<text transform="matrix(1 0 0 1 221.8102 336.9216)" style="fill:#FFFFFF; font-family:'Roboto-Bold'; font-size:12px;">ORGANIC</text>
				<path style="fill:#408F97;" d="M289.935,318.343h-84.236l0.698,10.117c15.164-3.707,61.905-4.689,83.189-5.059
					C289.586,323.401,289.935,318.343,289.935,318.343L289.935,318.343z"/>
			</g>
			<g>
				<rect x="317.625" y="297.128" style="fill:#5AA9E0;" width="106.335" height="13.292"/>
				<polygon style="fill:#5AA9E0;" points="405.407,427.159 336.179,427.159 328.129,310.42 413.457,310.42 				"/>
				<g>
					<polygon style="fill:#E1D6E6;" points="350.058,395.87 367.867,395.87 367.867,388.676 353.726,388.676 					"/>
					<polygon style="fill:#FFFFFF;" points="364.51,382.703 360.657,367.598 346.169,373.352 352.311,376.483 345.161,390.508 
						350.058,395.87 358.368,379.571 					"/>
					<polygon style="fill:#FFFFFF;" points="381.701,385.435 372.452,393.568 381.701,401.701 381.701,396.254 393.673,396.254 
						396.156,390.882 381.701,390.882 					"/>
					<polygon style="fill:#E1D6E6;" points="396.156,390.882 390.972,379.152 383.792,379.152 388.741,390.882 					"/>
					<polygon style="fill:#E1D6E6;" points="358.963,361.479 366.516,361.479 372.256,353.703 369.411,347.452 					"/>
					<polygon style="fill:#FFFFFF;" points="370.605,365.316 383.626,371.167 387.764,357.505 382.017,360.121 375.656,347.398 
						369.411,347.452 376.351,362.7 					"/>
				</g>
				<rect x="321.473" y="310.42" style="fill:#75C7E0;" width="98.641" height="7.923"/>
				<text transform="matrix(1 0 0 1 351.8117 336.9216)" style="fill:#FFFFFF; font-family:'Roboto-Bold'; font-size:12px;">PAPER</text>
				<path style="fill:#5A92E0;" d="M329.424,329.2c11.237-6.007,76.834-10.392,83.485-10.822l0.002-0.035h-84.236v0L329.424,329.2z"
					/>
			</g>
			<g>
				<rect x="444.722" y="297.128" style="fill:#FFAD35;" width="106.335" height="13.292"/>
				<polygon style="fill:#FFAD35;" points="532.504,427.159 463.276,427.159 455.225,310.42 540.554,310.42 				"/>
				<g>
					<polygon style="fill:#E1D6E6;" points="477.155,395.87 494.964,395.87 494.964,388.676 480.823,388.676 					"/>
					<polygon style="fill:#FFFFFF;" points="491.607,382.703 487.753,367.598 473.265,373.352 479.408,376.483 472.258,390.508 
						477.155,395.87 485.464,379.571 					"/>
					<polygon style="fill:#FFFFFF;" points="508.798,385.435 499.549,393.568 508.798,401.701 508.798,396.254 520.77,396.254 
						523.253,390.882 508.798,390.882 					"/>
					<polygon style="fill:#E1D6E6;" points="523.253,390.882 518.069,379.152 510.888,379.152 515.838,390.882 					"/>
					<polygon style="fill:#E1D6E6;" points="486.059,361.479 493.613,361.479 499.353,353.703 496.508,347.452 					"/>
					<polygon style="fill:#FFFFFF;" points="497.701,365.316 510.722,371.167 514.861,357.505 509.114,360.121 502.753,347.398 
						496.508,347.452 503.448,362.7 					"/>
				</g>
				<rect x="448.569" y="310.42" style="fill:#FFD635;" width="98.641" height="7.923"/>
				<text transform="matrix(1 0 0 1 473.6587 336.9216)" style="fill:#FFFFFF; font-family:'Roboto-Bold'; font-size:12px;">PLASTIC</text>
				<path style="fill:#EB8735;" d="M455.772,318.343l1.419,20.571c4.439-19.544,82.817-20.571,82.817-20.571H455.772z"/>
			</g>
		</g>
		<g>
			<path style="fill:#C63A51;" d="M132.076,143.732c0,0,10.055,10.671,15.077,15.271c5.022,4.6,10.082,11.271,8.012,20.011
				c-2.07,8.74-5.168,41.632-4.654,48.763c0,0-20.647,5.29-36.748-1.61c0,0,6.597-14.491,5.254-28.982
				c-1.343-14.491-8.704-40.482-3.413-51.983l2.765-5.116C118.369,140.087,126.242,143.978,132.076,143.732z"/>
			<path style="fill:#973A51;" d="M118.412,158.73c0,0-2.34,3.567,0.682,39.474c0.956,14.143-5.331,27.962-5.331,27.962
				c0.054,0.023,0.108,0.043,0.162,0.065l26.443-23.1L118.412,158.73z"/>
			<g>
				<path style="fill:#EE957C;" d="M149.614,111.176c-0.466,1.719-0.935,3.515-0.576,5.26c0.149,0.723,0.436,1.409,0.691,2.103
					c0.362,0.984,0.66,1.991,0.959,2.996c0.085,0.287,0.171,0.592,0.098,0.883c-0.091,0.359-0.402,0.613-0.699,0.835
					c-0.693,0.518-1.41,1.005-2.147,1.459c-1.085,2.945-1.372,6.562-3.321,9.022c-0.321,0.405-0.703,0.781-1.18,0.979
					c-0.602,0.25-1.283,0.19-1.93,0.109c-2.593-0.325-5.152-0.925-7.619-1.786c0,0-1.589,7.788-1.813,10.697
					c0,0-11.197,0.933-13.83-4.893c-1.464-3.238,4.967-21.624,4.967-21.624s-6.99-4.46,1.555-18.25
					c8.546-13.79,24.395,1.22,25.023,5.872C150.419,109.49,149.614,111.176,149.614,111.176z"/>
				<path style="fill:#43365E;" d="M147.071,106.776c-1.044,1.263-2.236,2.402-3.545,3.387c-1.158,0.871-2.462,1.641-3.904,1.782
					c-0.152-1.019-0.026-2.034,0.274-3.02c-2.953,1.576-4.907,4.719-5.921,7.909c-0.346-1.976-0.769-3.951-1.115-5.927
					c-0.135-0.773-0.365-1.669-1.091-1.968c-0.284-0.117-0.603-0.117-0.907-0.076c-0.825,0.113-1.604,0.533-2.152,1.159
					c-1.032,1.18-1.154,2.924-0.831,4.458c0.323,1.534,1.025,2.961,1.471,4.464c0.541,1.824-0.135,3.613-0.519,5.476
					c-0.834-1.127-1.674-2.289-1.999-3.653c0,0-1.083,16.542-7.11,25.889l-1.779-2.142c0,0-2.018,4.017-5.636,6.009l-0.074-3.489
					l-2.294,0.601c0,0,4.545-16.482,4.751-22.355l-2.284,1.341c0,0,2.893-12.291,0.341-11.14c0,0-0.802-21.17,10.94-26.584
					c8.797-4.056,23.835-0.737,27.269,13.819c0.325,1.379,0.424,2.804,0.364,4.22c-0.066,1.568-0.184,3.72-0.361,4.91
					C149.083,110.736,147.722,108.854,147.071,106.776z"/>
				<path style="fill:#D87E7C;" d="M132.894,138.244c0.484-2.701,0.995-5.209,0.995-5.209s-3.956-1.528-5.628-2.611
					C128.261,130.423,129.209,135.15,132.894,138.244z"/>
				<g>
					<path style="fill:#5C364B;" d="M145.866,116.327c-0.115,0.979-0.605,1.727-1.095,1.669c-0.49-0.058-0.793-0.898-0.678-1.877
						c0.115-0.979,0.605-1.726,1.095-1.669C145.677,114.508,145.981,115.348,145.866,116.327z"/>
					<path style="fill:#5C364B;" d="M142.684,113.457c-0.1,0-0.199-0.044-0.267-0.129c-0.118-0.147-0.093-0.362,0.054-0.479
						c0.605-0.483,1.336-0.705,1.97-0.86c0.54-0.132,1.253-0.274,1.965-0.187c0.187,0.022,0.322,0.192,0.299,0.379
						c-0.022,0.189-0.198,0.327-0.379,0.299c-0.602-0.072-1.208,0.047-1.723,0.173c-0.562,0.137-1.205,0.331-1.706,0.73
						C142.834,113.432,142.759,113.457,142.684,113.457z"/>
					<path style="fill:#5C364B;" d="M146.319,130.317c0.108-0.33,0.212-0.663,0.307-1.001c-0.907-0.483-1.875-1.134-2.591-1.976
						c-0.183-0.215-0.507-0.241-0.721-0.059c-0.216,0.183-0.242,0.506-0.059,0.721C144.118,129.019,145.273,129.779,146.319,130.317
						z"/>
				</g>
				<path style="fill:#D87E7C;" d="M131.091,110.85c-0.754,0.026-1.423,0.575-1.745,1.258c-0.322,0.682-0.339,1.474-0.217,2.218
					c0.055,0.331,0.136,0.659,0.27,0.967c0.325,0.748,0.967,1.352,1.734,1.63c-0.046-0.273,0.092-0.565,0.325-0.715
					c0.233-0.15,0.531-0.177,0.802-0.116c0.008-0.39-0.016-0.785-0.008-1.175c0.02-0.925,0.037-1.867-0.222-2.755
					C131.913,111.758,131.443,111.078,131.091,110.85z"/>
			</g>
			<g>
				
					<rect x="167.977" y="135.886" transform="matrix(0.9847 -0.1741 0.1741 0.9847 -22.5988 31.744)" style="fill:#40AD97;" width="3.297" height="17.577"/>
				<g>
					<path style="fill:#5AA9E0;" d="M183.133,137.428l5.346-7.922l-1.919-1.295l-5.346,7.922c-0.324,0.48-0.83,0.807-1.401,0.905
						l-1.414,0.242c-1.123,0.192-2.118,0.835-2.755,1.779l-7.275,10.78l6.86,4.63l7.275-10.78c0.637-0.944,0.861-2.108,0.619-3.221
						l-0.304-1.402C182.695,138.5,182.809,137.908,183.133,137.428z"/>
					
						<rect x="187.216" y="126.44" transform="matrix(0.5594 -0.8289 0.8289 0.5594 -23.5453 212.2776)" style="fill:#5AA9E0;" width="1.381" height="3.694"/>
					
						<rect x="173.967" y="140.536" transform="matrix(0.5594 -0.8289 0.8289 0.5594 -42.0016 210.3296)" style="fill:#5A8FE0;" width="5.759" height="8.276"/>
				</g>
				<g>
					<path style="fill:#5A8FE0;" d="M187.565,141.026l2.037-9.338l-2.262-0.493l-2.037,9.338c-0.124,0.566-0.473,1.057-0.967,1.359
						l-1.224,0.748c-0.972,0.594-1.659,1.559-1.902,2.672l-2.772,12.706l8.086,1.764l2.772-12.706
						c0.243-1.113,0.02-2.277-0.616-3.221l-0.801-1.19C187.555,142.184,187.441,141.592,187.565,141.026z"/>
					<path style="fill:#5AA9E0;" d="M227.552,153.032l6.512-6.996l-1.694-1.577l-7.13,7.659l-3.605,0.049
						c-0.331,0.005-0.646,0.144-0.872,0.387l-9.722,10.445l6.058,5.639l9.722-10.445c0.226-0.243,0.343-0.567,0.323-0.898
						l-0.156-2.694C226.953,154.023,227.158,153.456,227.552,153.032z"/>
					<polygon style="fill:#5AA9E0;" points="187.34,131.195 186.906,133.185 189.183,133.607 189.602,131.689 					"/>
				</g>
				<g>
					
						<rect x="147.919" y="159.794" transform="matrix(0.3148 -0.9492 0.9492 0.3148 -53.9533 303.3196)" style="fill:#B76535;" width="70.381" height="58.47"/>
					<path style="fill:#9A5335;" d="M191.622,201.95c-3.097-0.977-6.435-1.429-9.6-0.704c-2.317,0.53-5.328,1.947-6.516,4.149
						c-1.521,2.821,2.257,3.623,4.191,4.53c5.125,2.405,10.341,5.008,14.293,9.166c1.918,2.018,3.544,4.406,5.945,5.816
						c0.573,0.337,1.182,0.594,1.804,0.819l5.01-15.104C202.068,207.074,197.196,203.708,191.622,201.95z"/>
					
						<rect x="201.44" y="157.508" transform="matrix(0.3148 -0.9492 0.9492 0.3148 -19.0423 309.938)" style="fill:#C18B35;" width="7.419" height="21.301"/>
					
						<rect x="134.435" y="179.615" transform="matrix(0.3148 -0.9492 0.9492 0.3148 -58.9475 287.4569)" style="fill:#C18B35;" width="70.381" height="9.884"/>
				</g>
				<polygon style="fill:#A8A8C5;" points="212.375,161.66 216.995,152.265 210.197,149.262 206.251,159.636 				"/>
				<path style="fill:#C4C7E6;" d="M199.341,152.265c0.235-0.161,2.275-2.348,2.275-2.348l2.193,1.95l2.437-1.95l2.275,3.407
					l2.843,0.329l-1.381,1.219l1.706,2.514l-2.408,3.248l-11.468-3.779L199.341,152.265z"/>
				<path style="fill:#E13A51;" d="M188.627,153.809l2.495-4.546l2.275,1.543l1.706-1.056l2.031,1.137v1.462l1.868-0.577
					l2.275,1.308c0,0-1.575,4.401-1.868,4.304C199.116,157.287,188.627,153.809,188.627,153.809z"/>
			</g>
			<g>
				<path style="fill:#EE957C;" d="M211.624,209.183c0.522,0.149,1.119-0.149,1.193-1.193c0.075-1.044-3.43-4.251-4.698-5.146
					c-1.268-0.895-3.356-1.864-3.356-1.864s-0.224-1.342-2.088-2.163c-1.864-0.82-10.088-0.014-12.668,0.383
					c-2.579,0.397-10.317-0.694-20.138-3.274c-9.821-2.579-26.127-4.948-26.127-4.948c-0.78-6.086-4.216-15.125-4.216-15.125
					l-0.002,0c-1.951,1.652-7.102,5.396-13.17,5.1c0.834,4.285,3.215,14.692,7.361,19.101c6.225,6.617,50.017,7.562,51.583,7.711
					c1.566,0.149,2.685,0.522,5.37,2.312c2.685,1.79,7.458,1.268,9.471,1.044c2.014-0.224,4.773,1.641,5.593,1.872
					c0.82,0.232,0.969-1.5,0.969-1.5l1.492,0.969c0,0,0.895,0.671,1.715,0.503s0.746-1.174,0.746-1.174s0.671,0.82,1.268,1.119
					c0.597,0.298,1.342-0.671,1.342-1.342C213.265,210.898,211.624,209.183,211.624,209.183z"/>
				<path style="fill:#D87E7C;" d="M139.527,175.854l-0.002,0c-1.951,1.652-7.102,5.396-13.17,5.1
					c0.406,2.084,1.18,5.616,2.342,9.201c3.182-5.037,8.721-9.423,11.788-11.618C139.929,176.915,139.527,175.854,139.527,175.854z"
					/>
				<path style="fill:#E13A51;" d="M123.738,180.59c0,0-11.151-27.562-1.26-32.1c11.919-5.468,17.891,26.606,17.891,26.606
					S132.647,182.818,123.738,180.59z"/>
				<path style="fill:#D87E7C;" d="M188.521,206.564c-0.154-0.325-0.197-0.69-0.244-1.046c-0.124-0.942-0.607-6.826-2.473-5.081
					c-0.765,0.715-0.766,2.742-0.919,3.727c-0.184,1.18-0.31,2.373-0.295,3.567c0.368,0.015,0.618,0.027,0.71,0.036
					c1.566,0.149,2.685,0.522,5.37,2.312c0.081,0.054,0.18,0.087,0.264,0.137c0.333,0.072,0.666,0.144,0.998,0.217
					c-0.942-1.028-1.883-2.057-2.825-3.085C188.885,207.105,188.661,206.859,188.521,206.564z"/>
				<path style="fill:#C26F6B;" d="M205.273,201.226c-0.304-0.15-0.51-0.246-0.51-0.246s-0.034-0.196-0.178-0.483
					c-1.974-0.116-4.963-0.208-6.697,0.149c-0.185,0.038-0.304,0.219-0.265,0.403c0.033,0.161,0.175,0.273,0.333,0.273
					c0.023,0,0.047-0.002,0.069-0.007C199.894,200.929,203.423,201.098,205.273,201.226z"/>
				<g>
					<path style="fill:#C26F6B;" d="M210.985,211.659l-0.065-0.081c-0.145-0.179-3.609-4.408-8.495-5.908
						c-0.179-0.059-0.371,0.045-0.426,0.226c-0.055,0.18,0.045,0.371,0.226,0.426c4.328,1.329,7.602,5.023,8.099,5.607l0.067,0.756
						c0.3-0.355,0.264-0.892,0.264-0.892s0.157,0.189,0.379,0.414L210.985,211.659z"/>
					<path style="fill:#C26F6B;" d="M212.144,209.148l-0.263-0.189c-0.122-0.141-3.034-3.46-6.422-4.786
						c-0.178-0.069-0.374,0.017-0.443,0.193c-0.069,0.176,0.018,0.374,0.193,0.443c3.229,1.264,6.127,4.564,6.214,4.65l1.147,0.83
						c-0.448-0.582-0.947-1.107-0.947-1.107C211.799,209.232,211.975,209.209,212.144,209.148z"/>
					<path style="fill:#C26F6B;" d="M207,211.302l-0.073-0.064c-0.098-0.085-2.417-2.108-4.502-2.753
						c-0.18-0.057-0.372,0.045-0.427,0.225c-0.056,0.18,0.045,0.371,0.225,0.427c1.75,0.541,3.776,2.209,4.18,2.552l0.157,0.513
						c0.106-0.361,0.14-0.708,0.14-0.708l0.446,0.29L207,211.302z"/>
				</g>
				
					<rect x="179.207" y="202.001" transform="matrix(0.1516 -0.9884 0.9884 0.1516 -44.5922 355.0431)" style="fill:#624746;" width="10.629" height="2.991"/>
				<path style="fill:#523F46;" d="M187.33,203.497c0,1.551-1.258,2.809-2.809,2.809c-1.551,0-2.809-1.258-2.809-2.809
					c0-1.551,1.258-2.809,2.809-2.809C186.072,200.688,187.33,201.946,187.33,203.497z"/>
				<path style="fill:#978277;" d="M186.149,203.497c0,0.899-0.729,1.628-1.628,1.628c-0.899,0-1.628-0.729-1.628-1.628
					s0.729-1.628,1.628-1.628C185.42,201.869,186.149,202.598,186.149,203.497z"/>
			</g>
			<g>
				<path style="fill:#624746;" d="M115.557,226.874c-1.63,3.078-5.315,11.565-3.422,22.668c2.394,14.046,5.054,17.43,5.98,34.096
					c0.926,16.666,5.864,32.098,3.086,41.666c-2.778,9.568-11.111,20.37-14.814,46.604c0,0,5.071,5.864,15.653,6.481
					c0,0,7.718-25.675,12.844-32.596c5.126-6.92,7.176-16.147,8.458-29.988c1.212-13.086,8.325-71.342,6.115-87.786
					C145.253,228.934,129.165,231.875,115.557,226.874z"/>
				<path style="fill:#523F46;" d="M149.667,230.128c-0.059-0.755-0.125-1.473-0.211-2.108c-4.203,0.914-20.291,3.855-33.899-1.146
					c-1.546,2.919-4.93,10.706-3.663,20.971c1.846-2.12,3.733-4.205,5.689-6.224c1.59-1.641,3.253-3.276,5.301-4.288
					c1.409-0.696,2.95-1.073,4.477-1.444c4.611-1.121,9.223-2.242,13.834-3.363C143.867,231.878,147.043,231.411,149.667,230.128z"
					/>
				<g>
					<path style="fill:#C63A51;" d="M98.85,423.832c0,0-0.491-18.152,1.349-20.851c1.84-2.698,4.17,0,7.85,0
						c3.68,0,6.868-1.717,7.972-0.245c1.104,1.472,1.191,4.875,2.453,4.906c3.17,0.079,26.37,9.935,26.738,11.897
						c0.368,1.963,0.22,6.279,0.22,6.279h-25.96c0,0-4.394-3.425-9.904,0h-9.006c-0.97,0-1.747-0.801-1.719-1.771L98.85,423.832z"/>
					<path style="fill:#FFAD35;" d="M102.267,424.047l12.506-2.236c0,0-3.561-7.656-5.715-8.01
						c-1.527-0.252-7.124,1.629-10.258,2.747c-0.04,3.99,0.049,7.285,0.049,7.285l-0.007,0.215H102.267z"/>
					<path style="fill:#823A51;" d="M119.532,422.436c0,0-4.462-3.426-10.058,0h-9.146c-0.658,0-1.222-0.362-1.52-0.888
						c0.018,1.402,0.041,2.284,0.041,2.284l-0.007,0.216c-0.029,0.969,0.749,1.771,1.719,1.771h9.006c5.51-3.425,9.904,0,9.904,0
						h25.96c0,0,0.056-1.656,0.012-3.382H119.532z"/>
					<path style="fill:#823A51;" d="M137.483,418.048c1.623-0.253,2.678-0.873,3.341-1.444c-6.971-3.605-20.029-8.905-22.351-8.962
						c-0.215-0.005-0.395-0.115-0.552-0.29c-0.865,0.942-2.598,2.94-2.709,3.941C115.063,412.629,134.142,418.568,137.483,418.048z"
						/>
					<g>
						<path style="fill:#FFAD35;" d="M117.064,413.941c-0.077,0-0.156-0.017-0.231-0.055c-0.252-0.128-0.353-0.436-0.225-0.688
							c1.968-3.893,4.695-5.943,4.809-6.028c0.227-0.169,0.547-0.12,0.716,0.105c0.169,0.227,0.121,0.548-0.105,0.716
							c-0.026,0.02-2.653,2.003-4.507,5.668C117.431,413.839,117.251,413.941,117.064,413.941z"/>
						<path style="fill:#FFAD35;" d="M119.984,415.031c-0.078,0-0.157-0.017-0.232-0.056c-0.252-0.128-0.352-0.438-0.223-0.689
							c1.966-3.85,4.662-5.878,4.776-5.962c0.229-0.168,0.548-0.121,0.716,0.105c0.169,0.227,0.121,0.548-0.105,0.716
							c-0.026,0.02-2.623,1.98-4.475,5.607C120.35,414.93,120.171,415.031,119.984,415.031z"/>
						<path style="fill:#FFAD35;" d="M122.897,416.135c-0.079,0-0.159-0.019-0.233-0.057c-0.252-0.129-0.351-0.437-0.221-0.69
							c1.965-3.817,4.636-5.827,4.749-5.909c0.228-0.168,0.547-0.12,0.716,0.105c0.169,0.227,0.121,0.548-0.105,0.716
							c-0.026,0.02-2.599,1.962-4.449,5.557C123.263,416.034,123.083,416.135,122.897,416.135z"/>
						<path style="fill:#FFAD35;" d="M125.905,417.06c-0.081,0-0.163-0.019-0.24-0.06c-0.249-0.133-0.344-0.443-0.211-0.692
							c1.952-3.666,4.517-5.593,4.626-5.673c0.227-0.168,0.547-0.121,0.715,0.105c0.169,0.227,0.121,0.548-0.105,0.716
							c-0.025,0.019-2.494,1.882-4.332,5.333C126.266,416.961,126.089,417.06,125.905,417.06z"/>
						<path style="fill:#FFAD35;" d="M128.902,418.01c-0.083,0-0.167-0.02-0.246-0.063c-0.247-0.136-0.338-0.448-0.202-0.696
							c1.938-3.53,4.408-5.387,4.512-5.464c0.228-0.168,0.548-0.121,0.716,0.105c0.169,0.227,0.121,0.547-0.105,0.716
							c-0.023,0.017-2.401,1.812-4.226,5.136C129.258,417.914,129.084,418.01,128.902,418.01z"/>
						<path style="fill:#FFAD35;" d="M132.58,419.165c-0.081,0-0.163-0.019-0.239-0.06c-0.249-0.132-0.345-0.441-0.213-0.692
							c1.396-2.634,3.126-4.386,4.033-5.197c0.211-0.191,0.534-0.171,0.724,0.04c0.188,0.211,0.17,0.535-0.041,0.723
							c-0.856,0.766-2.489,2.422-3.81,4.915C132.942,419.067,132.765,419.165,132.58,419.165z"/>
					</g>
				</g>
				<g>
					<path style="fill:#C63A51;" d="M174.872,421.829c0,0-4.594-17.568-3.414-20.613c1.18-3.045,4.062-0.946,7.645-1.78
						c3.584-0.834,6.3-3.23,7.709-2.047c1.409,1.183,2.265,4.478,3.502,4.222c3.106-0.642,27.936,3.696,28.739,5.524
						c0.803,1.828,1.638,6.066,1.638,6.066l-25.284,5.887c0,0-5.056-2.34-9.646,2.246l-8.771,2.042
						c-0.945,0.22-1.884-0.384-2.075-1.335L174.872,421.829z"/>
					<path style="fill:#FFAD35;" d="M178.249,421.264l11.673-5.014c0,0-5.205-6.649-7.382-6.506
						c-1.545,0.101-6.569,3.202-9.368,5.001c0.866,3.895,1.699,7.084,1.699,7.084l0.043,0.211L178.249,421.264z"/>
					<path style="fill:#823A51;" d="M194.699,415.779c0,0-5.122-2.324-9.796,2.281l-8.908,2.074
						c-0.641,0.149-1.272-0.075-1.682-0.52c0.335,1.361,0.558,2.215,0.558,2.215l0.043,0.211c0.191,0.951,1.131,1.555,2.075,1.335
						l8.771-2.042c4.59-4.586,9.646-2.246,9.646-2.246l25.284-5.887c0,0-0.32-1.625-0.755-3.297L194.699,415.779z"/>
					<path style="fill:#823A51;" d="M211.187,407.435c1.524-0.614,2.41-1.457,2.926-2.164c-7.607-1.93-21.526-4.13-23.801-3.66
						c-0.211,0.044-0.41-0.022-0.604-0.157c-0.628,1.113-1.864,3.453-1.745,4.452C188.123,407.242,208.051,408.699,211.187,407.435z
						"/>
					<g>
						<path style="fill:#FFAD35;" d="M190.254,408.08c-0.041,0-0.081-0.004-0.122-0.015c-0.275-0.067-0.443-0.344-0.376-0.619
							c1.034-4.238,3.224-6.854,3.317-6.963c0.182-0.217,0.505-0.244,0.721-0.06c0.215,0.183,0.243,0.505,0.06,0.721
							c-0.021,0.025-2.129,2.554-3.103,6.544C190.693,407.923,190.484,408.08,190.254,408.08z"/>
						<path style="fill:#FFAD35;" d="M193.345,408.479c-0.041,0-0.083-0.005-0.124-0.015c-0.275-0.068-0.442-0.347-0.373-0.622
							c1.042-4.196,3.207-6.782,3.299-6.888c0.182-0.217,0.505-0.243,0.721-0.06c0.216,0.183,0.243,0.505,0.06,0.721
							c-0.021,0.025-2.105,2.523-3.087,6.475C193.784,408.323,193.574,408.479,193.345,408.479z"/>
						<path style="fill:#FFAD35;" d="M196.433,408.892c-0.041,0-0.083-0.005-0.125-0.016c-0.275-0.068-0.441-0.347-0.372-0.621
							c1.048-4.161,3.194-6.724,3.285-6.831c0.182-0.217,0.505-0.244,0.722-0.06c0.216,0.183,0.243,0.505,0.06,0.721
							c-0.021,0.025-2.087,2.501-3.073,6.42C196.871,408.737,196.662,408.892,196.433,408.892z"/>
						<path style="fill:#FFAD35;" d="M199.571,409.111c-0.043,0-0.088-0.005-0.132-0.017c-0.273-0.073-0.435-0.353-0.363-0.627
							c1.07-4.012,3.131-6.471,3.218-6.574c0.183-0.216,0.505-0.243,0.721-0.06c0.216,0.183,0.243,0.505,0.06,0.722
							c-0.02,0.024-2.003,2.399-3.01,6.176C200.005,408.96,199.798,409.111,199.571,409.111z"/>
						<path style="fill:#FFAD35;" d="M202.706,409.358c-0.045,0-0.092-0.007-0.138-0.019c-0.273-0.076-0.431-0.359-0.355-0.632
							c1.088-3.878,3.073-6.246,3.157-6.346c0.181-0.215,0.505-0.243,0.721-0.059c0.216,0.183,0.243,0.505,0.06,0.721
							c-0.019,0.023-1.928,2.309-2.951,5.96C203.135,409.21,202.93,409.358,202.706,409.358z"/>
						<path style="fill:#FFAD35;" d="M206.55,409.648c-0.043,0-0.087-0.005-0.131-0.017c-0.273-0.072-0.437-0.352-0.364-0.625
							c0.761-2.878,2.049-4.98,2.748-5.978c0.163-0.231,0.482-0.287,0.714-0.124c0.231,0.163,0.287,0.481,0.125,0.714
							c-0.661,0.94-1.876,2.926-2.597,5.649C206.984,409.496,206.778,409.648,206.55,409.648z"/>
					</g>
				</g>
				<path style="fill:#EE957C;" d="M107.634,373.076l-5.076,28.724c1.448,0.146,3.21,1.18,5.49,1.18c3.117,0,5.876-1.225,7.32-0.707
					l5.429-23.997C113.944,377.585,109.602,374.72,107.634,373.076z"/>
				<path style="fill:#D87E7C;" d="M106.99,376.721c2.468,3.26,7.017,8.966,11.28,12.725l2.527-11.17
					c-6.853-0.692-11.196-3.556-13.163-5.2L106.99,376.721z"/>
				<path style="fill:#5C4346;" d="M172.967,333.07c-0.268-9.303,2.26-23.295-2.754-34.35
					c-10.264-22.629-20.527-53.769-20.527-53.769l-0.001,0c-0.663,16.173-2.901,38.247-4.571,53.97
					c4.935,6.068,7.847,12.685,8.351,26.298c0.581,15.699,9.012,49.714,9.012,49.714c6.105,0.872,15.118-3.779,15.118-3.779
					S173.235,342.373,172.967,333.07z"/>
				<path style="fill:#EE957C;" d="M176.722,371.579c-2.143,1.004-7.825,3.428-12.547,3.451c1.308,4.741,4.807,17.085,7.952,25.124
					c1.422-1.393,3.945-0.013,6.975-0.718c2.473-0.576,4.532-1.894,6.034-2.268C183.26,391.677,179.344,380.1,176.722,371.579z"/>
				<path style="fill:#523F46;" d="M149.686,244.952L149.686,244.952c-0.664,16.174-2.902,38.247-4.572,53.97
					c0.787,0.969,1.517,1.955,2.2,2.978c1.017-15.144,5.934-33.486,7.372-42.481C152.497,253.176,149.686,244.952,149.686,244.952z"
					/>
				<path style="fill:#D87E7C;" d="M177.464,373.961c-0.255-0.812-0.505-1.613-0.742-2.382c-2.143,1.004-7.825,3.428-12.547,3.451
					c0.512,1.856,1.363,4.885,2.394,8.357c0.024-0.027,0.056-0.061,0.077-0.086c2.194-2.5,4.607-4.807,7.204-6.885
					C174.889,375.585,176.324,374.853,177.464,373.961z"/>
			</g>
		</g>
		<g>
			<path style="fill:#4B455E;" d="M614.194,215.807c0,0,7.441,10.749,8.475,24.391c1.034,13.643,1.447,32.039,6.201,41.961
				c0,0-19.844,7.028-33.486,5.374l-1.847-3.74c0,0-15.46,7.675-24.827,0.65l-2.212-26.018l4.241-43.702L614.194,215.807z"/>
			<path style="fill:#393548;" d="M622.669,240.198c-1.034-13.642-8.475-24.391-8.475-24.391l-43.455-1.083l-0.688,7.086
				c2.613,0.261,5.187,0.292,7.213,0.346c2.179,0.058,4.374,0.117,6.503,0.585c2.826,0.62,5.443,1.937,8.025,3.241
				c3.26,1.646,6.52,3.292,9.78,4.939c5.155,2.603,10.344,5.228,14.919,8.751c2.341,1.803,4.495,3.822,6.552,5.944
				C622.922,243.75,622.801,241.935,622.669,240.198z"/>
			<g>
				<path style="fill:#5AA9E0;" d="M604.032,120.134c0,0-7.25-3.906-9.825-4.087c-2.575-0.182-18.32,9.064-18.32,9.064
					s-4.343,12.452-4.917,19.3c-0.574,6.848,0.434,62.216,1.837,71.48c0,0,15.47,4.677,28.241,1.259c0,0-1.18-63.051,0.954-73.802
					C604.136,132.596,604.032,120.134,604.032,120.134z"/>
				<path style="fill:#86E7EE;" d="M590.401,127.424c-3.644,3.05-8.508,4.6-13.246,4.221c-0.518-0.041-1.045-0.108-1.513-0.333
					c-1.086-0.521-1.635-1.82-1.572-3.023c0.063-1.202,0.628-2.321,1.276-3.336c2.725-4.269,7.118-7.248,11.909-8.745
					c2.129-0.665,5.136-1.566,7.371-1.016c2.642,0.65,1.792,3.061,1.02,4.975C594.518,122.962,592.713,125.488,590.401,127.424z"/>
				<path style="fill:#8B5346;" d="M604.032,120.134c0,0-3.048,9.714-6.567,19.596c-5.494,15.43-2.479,43.398-0.294,52.169
					c0,0-5.582,3.529-8.976,6.648c0,0,5.045,7.614,5.504,13.118c0,0,2.935-0.826,4.678-1.376l-0.183,15.319
					c0,0,5.687,1.559,10.916,0c5.229-1.559,11.099-0.734,12.017-0.917c0.917-0.183-2.66-19.08-1.835-25.318
					c0,0,13.219-6.434,15.054-10.807s-0.706-17.354-3.386-23.844c-2.681-6.49-4.656-27.794-11.71-34.425
					C612.196,123.665,604.032,120.134,604.032,120.134z"/>
				<g>
					<path style="fill:#724746;" d="M598.378,210.288L598.378,210.288c10.386,0.148,18.863,6.375,22.549,9.579
						c-0.709-6.076-2.198-16.236-1.634-20.495L598.378,210.288z"/>
					<polygon style="fill:#724746;" points="598.378,210.288 598.378,210.288 598.378,210.288 					"/>
				</g>
				<path style="fill:#724746;" d="M597.172,191.898c0,0,14.104-9.383,20.978-12.671c0,0-11.506-22.415-13.299-34.818
					c0,0,0.662,16.777,9.283,33.112L597.172,191.898"/>
				<path style="fill:#8B5346;" d="M554.724,214.028c-0.538-30.854,2.255-70.036,6.246-76.9
					c3.991-6.864,14.375-12.173,14.375-12.173s-7.224,17.454-1.28,93.445l-11.216-2.625v10.527l-8.191-1.959L554.724,214.028z"/>
				<path style="fill:#724746;" d="M562.796,148.139v60.374l2.858,2.978C566.54,191.813,562.796,148.139,562.796,148.139z"/>
				<path style="fill:#97916B;" d="M606.434,121.309c-1.477-0.772-2.401-1.175-2.401-1.175s-3.048,9.714-6.567,19.596
					c-5.494,15.43-2.479,43.398-0.294,52.169c0,0-2.432,1.54-5.061,3.482l7.591-5.141c-6.85-32.334-1.098-48.859,1.93-55.266
					C603.979,130.005,605.753,123.837,606.434,121.309z"/>
				<path style="fill:#97916B;" d="M601.473,226.168v-17.513l-3.176,1.658c0.026-0.008,0.056-0.017,0.082-0.025l-0.183,15.319
					C598.195,225.607,599.521,225.967,601.473,226.168z"/>
				<path style="fill:#87776B;" d="M601.473,210.526v-1.853l-3.095,1.615C599.433,210.303,600.461,210.395,601.473,210.526z"/>
			</g>
			<path style="fill:#393548;" d="M588.184,285.841c3.193-0.976,5.353-2.048,5.353-2.048s-7.319-21.975-8.614-32.764
				C584.923,251.029,586.51,276.039,588.184,285.841z"/>
			<path style="fill:#EE957C;" d="M669.428,378.539c0,0-7.428-14.856-12.295-28.176c-4.867-13.32-18.215-25.867-20.818-31.073
				c-2.259-4.518-8.296-29.749-9.852-36.34c-5.279,1.659-18.252,5.307-28.7,4.78l-0.079,0.055
				c6.92,26.499,24.137,40.63,29.335,47.776c5.198,7.147,29.681,47.548,29.681,47.548s0.35,1.236,0.125,3.386
				c0.502,2.257,4.515,0.878,9.155,0C670.62,385.618,669.428,378.539,669.428,378.539z"/>
			<path style="fill:#8B5346;" d="M670.688,379.024c-0.403-0.436-1.105-0.271-1.307,0.287c-1.413,3.909-5.475,6.795-9.659,6.652
				c-1.139-0.039-2.558-0.14-3.119,0.851c-0.256,0.453-0.231,1.005-0.25,1.525c-0.153,4.142-1.956,8.024-3.879,11.695
				c-1.923,3.671-4.073,7.264-5.319,11.217c-0.582,1.846-0.952,3.883-0.252,5.687c1.045,2.696,4.145,4.018,7.023,4.299
				c1.182,0.115,2.385,0.104,3.544-0.153c3.759-0.833,6.524-4.116,8.132-7.614c2.477-5.388,2.971-11.755,6.656-16.401
				c1.234-1.556,2.807-2.887,3.639-4.689c0.672-1.457,0.8-3.098,0.886-4.699c0.031-0.575,0.056-1.164-0.114-1.714
				c-0.217-0.705-0.729-1.274-1.227-1.818C673.992,382.561,672.242,380.704,670.688,379.024z"/>
			<path style="fill:#B8A994;" d="M676.669,385.966c-0.217-0.705-0.729-1.274-1.227-1.818c-0.041-0.045-0.086-0.094-0.128-0.139
				c-0.002,0.031-0.003,0.063-0.004,0.095c-0.086,1.602-0.214,3.243-0.886,4.699c-0.832,1.803-2.405,3.134-3.639,4.689
				c-3.685,4.646-4.179,11.013-6.656,16.401c-1.608,3.498-4.373,6.781-8.132,7.614c-1.159,0.257-2.643-1.578-3.758-1.988
				c-3.758-1.381-4.449-0.69-5.702-0.421c0.03,0.628,0.135,1.247,0.365,1.839c1.045,2.696,4.145,4.018,7.023,4.299
				c1.182,0.115,2.385,0.104,3.544-0.153c3.759-0.833,6.524-4.116,8.132-7.614c2.477-5.388,2.971-11.755,6.656-16.401
				c1.234-1.556,2.807-2.887,3.639-4.689c0.672-1.457,0.8-3.098,0.886-4.699C676.814,387.105,676.839,386.516,676.669,385.966z"/>
			<path style="fill:#613C3C;" d="M663.679,391.152c-0.156-0.16-0.41-0.157-0.633-0.143c-1.681,0.11-3.398,0.268-5.068-0.038
				c-0.658-0.12-1.298-0.337-1.905-0.258c-0.592,3.26-2.049,6.361-3.6,9.321c-0.718,1.371-1.468,2.732-2.191,4.104
				c0.304,0.891,1.379,1.318,2.331,1.513c1.55,0.318,3.245,0.415,4.635-0.341c1.332-0.724,2.166-2.119,2.698-3.538
				c0.532-1.419,0.828-2.923,1.43-4.314c0.828-1.911,2.239-3.638,2.432-5.712C663.829,391.539,663.826,391.302,663.679,391.152z"/>
			<g>
				<path style="fill:#B8A994;" d="M664.164,394.381c-0.003,0-0.005,0-0.008,0c-3.784-0.063-9.372-1.16-9.608-1.207
					c-0.277-0.055-0.457-0.325-0.403-0.603c0.055-0.276,0.308-0.464,0.603-0.403c0.056,0.012,5.733,1.127,9.424,1.188
					c0.283,0.005,0.508,0.237,0.504,0.52C664.671,394.157,664.443,394.381,664.164,394.381z"/>
				<path style="fill:#B8A994;" d="M663.519,396.749c-0.003,0-0.005,0-0.008,0c-3.784-0.063-9.372-1.159-9.606-1.206
					c-0.279-0.055-0.459-0.324-0.404-0.602c0.053-0.276,0.313-0.46,0.602-0.404c0.057,0.012,5.735,1.126,9.425,1.187
					c0.283,0.005,0.508,0.237,0.504,0.52C664.025,396.525,663.797,396.749,663.519,396.749z"/>
				<path style="fill:#B8A994;" d="M662.568,399.119c-0.003,0-0.005,0-0.008,0c-3.784-0.064-9.372-1.16-9.606-1.207
					c-0.279-0.055-0.459-0.324-0.404-0.602c0.055-0.277,0.317-0.465,0.602-0.404c0.057,0.012,5.735,1.126,9.425,1.188
					c0.284,0.005,0.509,0.237,0.504,0.52C663.074,398.895,662.846,399.119,662.568,399.119z"/>
				<path style="fill:#B8A994;" d="M661.327,401.488c-0.003,0-0.005,0-0.008,0c-3.784-0.063-9.372-1.16-9.608-1.207
					c-0.277-0.055-0.457-0.325-0.403-0.603c0.055-0.276,0.305-0.464,0.603-0.403c0.056,0.012,5.733,1.127,9.424,1.188
					c0.283,0.005,0.508,0.237,0.504,0.52C661.834,401.264,661.606,401.488,661.327,401.488z"/>
				<path style="fill:#B8A994;" d="M660.302,403.858c-0.003,0-0.005,0-0.009,0c-3.782-0.064-9.37-1.16-9.605-1.207
					c-0.279-0.055-0.459-0.324-0.404-0.602c0.055-0.277,0.316-0.465,0.602-0.404c0.057,0.012,5.735,1.126,9.426,1.188
					c0.283,0.005,0.508,0.237,0.503,0.52C660.809,403.634,660.581,403.858,660.302,403.858z"/>
			</g>
			<path style="fill:#EE957C;" d="M597.068,287.687c-0.569-0.039-1.133-0.087-1.684-0.154l-1.847-3.74c0,0-12.302,6.1-21.608,2.43
				c-0.016,2.985,0.355,8.744,2.609,17.44c3.474,13.398,9.428,90.066,8.188,100.735l0.167,3.519l14.791-1.502
				c0,0-2.037-16.332,0-28.159c2.038-11.827,2.795-40.344,0-58.031C595.816,308.398,596.446,295.166,597.068,287.687z"/>
			<path style="fill:#8B5346;" d="M580.576,406.059c2.547-1.904,7.997,0.795,11.086,0.041c1.776-0.433,3.486-1.255,5.314-1.276
				c0.416-0.005,0.863,0.045,1.178,0.318c0.27,0.234,0.395,0.595,0.472,0.943c0.236,1.059,0.212,2.157,0.029,3.225
				c-0.844,4.905,1.25,9.919,0.761,14.756c-0.101,1.002-0.973,1.753-1.98,1.753h-12.15c0,0-1.932-2.1-6.763,0h-28.047
				c-1.209,0-2.159-1.075-1.965-2.268c0.395-2.428,1.635-5.986,5.495-6.38C559.924,416.566,574.212,410.816,580.576,406.059z"/>
			<path style="fill:#B8A994;" d="M598.417,421.88h-12.392c0,0-1.971-2.1-6.898,0h-28.605c-0.559,0-1.056-0.228-1.422-0.58
				c-0.291,0.776-0.476,1.559-0.588,2.25c-0.194,1.194,0.755,2.268,1.965,2.268h28.047c4.831-2.1,6.763,0,6.763,0h12.15
				c1.007,0,1.878-0.751,1.979-1.753c0.082-0.816,0.075-1.638,0.036-2.463C599.146,421.778,598.791,421.88,598.417,421.88z"/>
			<path style="fill:#613C3C;" d="M578.673,407.364c-0.003-0.001-0.007-0.002-0.01-0.003c-4.567,2.915-11.414,5.985-17.12,7.91
				c0.036,0.242,0.101,0.479,0.221,0.697c0.15,0.273,0.369,0.513,0.647,0.653c0.377,0.19,0.82,0.18,1.241,0.164
				c5.533-0.2,11.333-0.615,16.016-3.569c0.577-0.364,1.143-0.775,1.536-1.333c0.393-0.558,0.592-1.289,0.377-1.937
				C581.221,408.87,579.649,407.849,578.673,407.364z"/>
			<g>
				<path style="fill:#B8A994;" d="M581.667,414.396c-0.085,0-0.172-0.021-0.251-0.065c-3.782-2.125-5.8-6.018-5.884-6.181
					c-0.128-0.252-0.028-0.56,0.223-0.69c0.251-0.125,0.56-0.029,0.689,0.223c0.019,0.037,1.969,3.786,5.473,5.755
					c0.247,0.139,0.335,0.451,0.196,0.697C582.019,414.302,581.846,414.396,581.667,414.396z"/>
				<path style="fill:#B8A994;" d="M578.361,415.574c-0.085,0-0.172-0.021-0.251-0.065c-3.782-2.126-5.8-6.019-5.884-6.183
					c-0.128-0.252-0.028-0.56,0.223-0.69c0.249-0.127,0.56-0.031,0.69,0.223c0.019,0.037,1.968,3.786,5.473,5.756
					c0.247,0.139,0.335,0.451,0.196,0.698C578.713,415.48,578.54,415.574,578.361,415.574z"/>
				<path style="fill:#B8A994;" d="M574.56,416.777c-0.101,0-0.204-0.029-0.293-0.092c-3.141-2.191-4.811-5.415-4.88-5.551
					c-0.128-0.252-0.029-0.56,0.223-0.689c0.249-0.128,0.56-0.029,0.689,0.223c0.016,0.031,1.628,3.137,4.554,5.177
					c0.232,0.161,0.288,0.482,0.127,0.714C574.88,416.701,574.722,416.777,574.56,416.777z"/>
				<path style="fill:#B8A994;" d="M570.605,417.69c-0.108,0-0.216-0.033-0.308-0.103c-2.901-2.181-4.438-5.152-4.503-5.277
					c-0.128-0.252-0.029-0.56,0.223-0.689c0.249-0.127,0.559-0.031,0.689,0.223c0.015,0.029,1.5,2.893,4.206,4.925
					c0.225,0.169,0.271,0.491,0.101,0.717C570.914,417.62,570.759,417.69,570.605,417.69z"/>
				<path style="fill:#B8A994;" d="M566.249,418.1c-0.131,0-0.263-0.051-0.363-0.151c-1.894-1.896-2.891-3.826-2.933-3.908
					c-0.128-0.252-0.029-0.56,0.223-0.69c0.248-0.125,0.56-0.031,0.689,0.223c0.009,0.019,0.971,1.874,2.746,3.652
					c0.2,0.2,0.199,0.524-0.001,0.724C566.51,418.051,566.38,418.1,566.249,418.1z"/>
			</g>
			<g>
				<path style="fill:#EE957C;" d="M555.299,88.666c0,0-1.292,2.953,0,5.444c1.292,2.491,3.414,6.182,3.414,9.135
					c0,2.953-0.923,4.891,0,5.167c0.923,0.277,2.768,0.185,3.137,1.015c0.369,0.83,4.798,10.704,8.305,10.519
					c3.506-0.185,5.998-3.23,5.998-3.23s0.831,8.582,0.738,11.627c0,0,12.888-0.093,17.317-12.297l-2.264-9.941
					c0,0,0.411-6.647,1.328-9.267s-1.048-17.817-6.682-18.735c-5.633-0.917-28.167,3.275-29.215,4.847
					C556.327,84.523,555.299,88.666,555.299,88.666z"/>
				<path style="fill:#5C364B;" d="M557.714,77.963c-3.038,1.448-5.769,3.895-6.144,7.551c-0.134,1.306,0.228,2.633,0.96,3.723
					c0.364,0.542,0.85,1.084,1.485,1.303c0.326,0.113,0.678,0.135,1.021,0.109c2.05-0.156,3.565-1.905,4.832-3.523
					c0.656,2.23,2.828,3.936,5.14,4.18c2.312,0.244,4.685-0.882,6.077-2.744c0.917,1.685,2.372,3.231,4.16,3.925
					c1.788,0.694,4.001,0.448,5.369-0.896c0.711,2.298,1.583,5.324,2.949,7.594c0.366,0.608,1.305,0.36,1.332-0.349
					c0.068-1.74,0.156-3.671,0.195-5.137c0.019-0.711,0.037-1.431-0.054-2.133c-0.201-1.539,1.095-2.962,2.633-2.755
					c1.181,0.159,2.163,1.132,2.529,2.27c0.373,1.157,0.182,2.44-0.299,3.556c-0.553,1.283-1.486,2.4-2.651,3.173
					c-0.304,2.867,1.492,5.793,3.757,7.578c1.026,0.808,2.358,1.481,3.601,1.078c0.156-0.05,0.315-0.124,0.403-0.262
					c0.07-0.11,0.085-0.245,0.097-0.375c0.131-1.413,0.105-2.84-0.077-4.248c0,0,8.678-8.739-1.978-19.475
					c0,0,2.018-9.883-5.21-12.472c-5.289-1.895-9.473,1.105-9.473,1.105s-2.95-6.586-10.262-5.368
					C557.686,67.11,557.714,77.963,557.714,77.963z"/>
				<path style="fill:#D87E7C;" d="M582.009,109.709c-0.616,1.883-4.76,5.984-5.853,7.044c0.026,0.265,0.411,4.298,0.616,7.751
					C580.534,121.186,582.009,109.709,582.009,109.709z"/>
				<path style="fill:#5C364B;" d="M564.549,99.358c0.372,1.022,0.348,1.968-0.054,2.114c-0.401,0.146-1.028-0.564-1.4-1.585
					c-0.372-1.022-0.347-1.968,0.054-2.114C563.551,97.627,564.178,98.337,564.549,99.358z"/>
				<path style="fill:#5C364B;" d="M560.134,96.71c-0.135,0-0.271-0.053-0.371-0.159c-0.195-0.205-0.187-0.529,0.017-0.724
					c1.339-1.274,3.397-1.697,5.131-1.049c0.264,0.099,0.399,0.394,0.3,0.659c-0.1,0.267-0.392,0.398-0.66,0.3
					c-1.371-0.512-3.005-0.178-4.064,0.832C560.389,96.663,560.261,96.71,560.134,96.71z"/>
				<path style="fill:#5C364B;" d="M566.297,114.571c-0.268,0-0.492-0.207-0.511-0.477c-0.02-0.282,0.193-0.526,0.476-0.546
					c0.987-0.067,1.836-0.59,2.375-1.016c0.712-0.563,1.322-1.286,1.935-2.04c0.179-0.22,0.5-0.253,0.72-0.074
					c0.22,0.179,0.253,0.501,0.075,0.721c-0.651,0.8-1.3,1.57-2.095,2.197c-0.935,0.74-1.952,1.166-2.941,1.234
					C566.32,114.571,566.308,114.571,566.297,114.571z"/>
				<path style="fill:#D87E7C;" d="M587.566,90.462c0.438,0.079,0.88,0.268,1.138,0.631c0.221,0.311,0.279,0.711,0.257,1.092
					c-0.051,0.915-0.509,1.75-0.957,2.55c-0.083,0.147-0.189,0.312-0.356,0.333c-0.078,0.01-0.158-0.014-0.237-0.004
					c-0.219,0.029-0.313,0.29-0.348,0.508c-0.032,0.197-0.057,0.404-0.174,0.565s-0.361,0.251-0.52,0.13
					c-0.109-1.377-0.154-2.777-0.328-4.147c-0.053-0.417-0.226-0.746,0.007-1.137C586.369,90.447,586.996,90.359,587.566,90.462z"/>
			</g>
			<g>
				<path style="fill:#FF4C58;" d="M584.745,251.207l-29.713,18.93c-1.345,0.857-3.118,0.578-4.135-0.652l-46.525-56.268
					l50.193-31.978l31.336,65.944C586.586,248.625,586.091,250.35,584.745,251.207z"/>
				<path style="fill:#B24958;" d="M554.565,181.24l-50.193,31.978l11.947,14.449c10.732-18.661,33.108-39.874,38.847-45.163
					L554.565,181.24z"/>
				<polygon style="fill:#FF6F58;" points="559.123,178.337 499.353,216.416 494.556,210.526 555.836,173.236 				"/>
				<g>
					<path style="fill:#FFFFFF;" d="M568.386,227.116l-8.112-4.592l-1.641,2.898l7.971,4.512l-7.546,5.074l0.24-3.363l-3.321-0.237
						l-0.575,8.064l7.686,2.511l1.034-3.165l-3.205-1.047l7.681-5.165c0.936-0.629,1.469-1.677,1.425-2.804
						C569.978,228.676,569.367,227.671,568.386,227.116z"/>
					<path style="fill:#FFFFFF;" d="M550.299,220.701l-3.129,0.824l0.846,3.22l7.82-2.058l-0.104-8.085l-3.329,0.043l0.044,3.446
						l-9-5.095c-1.071-0.607-2.372-0.557-3.394,0.13c-1.021,0.687-1.558,1.872-1.401,3.093l1.215,9.422l3.303-0.426l-1.19-9.224
						L550.299,220.701z"/>
					<path style="fill:#FFFFFF;" d="M544.563,236.008l2.76,1.603l1.673-2.878l-6.99-4.062l-5.635,5.799l2.389,2.32l2.476-2.549
						l1.084,8.402c0.144,1.118,0.844,2.063,1.87,2.528c1.027,0.465,2.199,0.367,3.134-0.262l6.904-4.642l-1.858-2.763l-6.77,4.552
						L544.563,236.008z"/>
				</g>
				<path style="fill:#A8A8C5;" d="M516.562,194.826l1.6-13.586l3.801-1.295l2.601,3.754l5.206-2.459c0,0,3.397-13.698,3.997-13.698
					c0.6,0,11.533,0,11.533,0l4.619,9.294l-31.957,19.513L516.562,194.826z"/>
				<polygon style="fill:#C4C7E6;" points="503.578,205.036 501.044,199.577 504.373,198.042 508.05,189.168 511.284,189.906 
					511.284,192.761 517.751,191.503 520.357,194.826 				"/>
				<path style="fill:#C4C7E6;" d="M537.873,184.192v-4.377c0,0,4.095,0.87,4.095,0c0-0.87,0-3.47,0-3.47l5.262-3.128h4.14
					l0.536,2.41L537.873,184.192z"/>
			</g>
			<g>
				<path style="fill:#EE957C;" d="M588.718,199.372c-0.003,0.002-6.41,4.088-9.118,3.803c-2.709-0.285-8.127-1.996-10.836-2.709
					c-2.709-0.713-4.93-2.281-6.214-2.424l3.693,7.772c0,0-3.709,3.861-8.191,4.667c-4.482,0.806-7,0.755-7,0.755
					s-1.612-0.201-1.914,0.755c-0.302,0.957-0.208,2.153,1.555,2.556c0,0-1.859,0.36-2.836,0c-0.977-0.36-2.143,1.696-0.587,2.703
					s4.252,1.148,4.252,1.148s-0.763,1.764,0.254,2.273c1.017,0.509,3.687,1.161,7.247,1.034c0,0-1.081,0.619-1.081,1.255
					s0.551,1.394,2.204,1.585c1.653,0.191,9.684,0.132,12.417-1.203c2.734-1.335,9.981-6.802,13.541-9.472
					c2.832-2.124,6.179-3.079,7.433-3.382C592.768,206.273,589.904,201.299,588.718,199.372z"/>
				<path style="fill:#D87E7C;" d="M586.104,213.869c0.672-0.504,1.373-0.938,2.069-1.317c-0.02-0.55-0.303-1.124-0.59-1.623
					c-1.401-2.44-2.649-4.967-3.735-7.563c-0.153-0.366-0.462-0.767-0.784-1.01c-0.338,0.139-0.671,0.266-0.997,0.377
					c-0.017,0.077-0.042,0.132-0.052,0.228c-0.148,1.399,0.674,3.185,0.864,4.595c0.397,2.94,0.32,5.937-0.181,8.861
					C583.987,215.459,585.173,214.568,586.104,213.869z"/>
				<path style="fill:#FFD041;" d="M588.844,213.82L588.844,213.82c-0.626,0.299-1.376,0.033-1.675-0.593l-5.139-10.775
					c-0.299-0.626-0.033-1.376,0.593-1.675l0,0c0.626-0.299,1.376-0.033,1.675,0.593l5.139,10.775
					C589.735,212.772,589.47,213.522,588.844,213.82z"/>
				<g>
					<path style="fill:#BE6B67;" d="M550.61,215.054c0.124,0.02,1.23,0.191,2.891,0.191c3.059,0,8.002-0.581,12.152-3.754
						c0.225-0.172,0.268-0.493,0.096-0.717c-0.173-0.226-0.495-0.267-0.717-0.096c-6.048,4.624-14.178,3.378-14.276,3.363
						l-1.353-0.172c0.262,0.294,0.668,0.537,1.289,0.679c0,0-1.859,0.36-2.836,0c-0.206-0.076-0.416-0.027-0.611,0.079
						L550.61,215.054z"/>
					<path style="fill:#BE6B67;" d="M569.79,219.156c-3.568,1.845-7.857,2.067-9.805,2.067c-0.631-0.001-1.006-0.023-1.052-0.022
						l-2.545,0.455c0.808,0.059,1.687,0.084,2.636,0.05c0,0-0.475,0.276-0.795,0.647l0.757-0.137
						c0.255,0.019,6.308,0.42,11.273-2.15c0.252-0.13,0.351-0.439,0.22-0.69C570.35,219.124,570.038,219.027,569.79,219.156z"/>
					<path style="fill:#BE6B67;" d="M551.342,218.955l0.195-0.038c0.976,0.124,8.964,0.973,16.538-3.5
						c0.244-0.143,0.324-0.457,0.181-0.702c-0.144-0.243-0.459-0.323-0.702-0.18c-7.59,4.482-15.877,3.368-15.96,3.356
						c-0.059-0.008-0.116-0.006-0.169,0.004l-1.506,0.294c0.896,0.171,1.603,0.209,1.603,0.209S551.422,218.635,551.342,218.955z"/>
				</g>
			</g>
			<path style="fill:#D87E7C;" d="M596.445,301.836c0.019-5.525,0.321-10.517,0.623-14.148c-0.569-0.039-1.133-0.087-1.684-0.154
				l-1.847-3.74c0,0-12.302,6.1-21.608,2.43c-0.005,0.967,0.04,2.257,0.167,3.812c1.552,0.482,3.633,0.554,4.802,0.866
				c5,1.337,9.768,3.535,14.035,6.463C592.886,298.705,594.729,300.203,596.445,301.836z"/>
			<path style="fill:#D87E7C;" d="M626.462,282.95c-5.279,1.659-18.252,5.307-28.7,4.78l-0.079,0.055
				c0.222,0.851,0.483,1.654,0.726,2.48c0.547,0.267,1.28,0.456,2.293,0.511c5.555,0.302,11.211-0.009,16.777,0.02
				c3.049,0.016,6.135,0.043,9.082,0.824c0.735,0.195,1.451,0.446,2.161,0.717C627.73,288.29,626.91,284.847,626.462,282.95z"/>
		</g>
		<rect x="60.954" y="425.818" style="fill:#B6C6E6;" width="628.091" height="10.442"/>
		<g>
			<path style="fill:#DAE2F0;" d="M337.857,444.806c-4.18,2.381-3.385,8.676,1.201,10.131c3.109,0.987,6.331,1.449,9.529,1.557
				c11.659,0.394,23.141-3.691,34.786-4.516c23.135-1.638,45.851,9.6,69.018,9.32c3.606-0.044,7.415-0.457,10.379-3.173
				c1.46-1.338,2.716-3.491,2.512-5.825c-0.309-3.539-3.502-5.083-6.158-5.679c-10-2.244-20.215-1.863-30.357-1.658
				c-17.519,0.354-35.043,0.161-52.555-0.577c-8.801-0.371-17.713-0.49-26.486-1.532
				C345.433,442.345,341.452,442.759,337.857,444.806z"/>
			<g>
				<g>
					<path style="fill:#4B455E;" d="M424.251,423.736c0.238-0.013,0.493-0.039,0.775-0.087c3.574-0.613,13.156,0.062,17.349,0.052
						c0.041,2.032,0.207,6.412,0.882,8.469c0.895,2.728,7.56,10.059,9.45,14.492c1.89,4.433-3.382,6.003-3.382,6.003h-10.677
						c-5.325,0.111-8.962-4.675-11.3-6.79c-2.338-2.115-2.208-7.791-2.078-14.136c0.13-6.344-1.022-8.001-1.022-8.001
						L424.251,423.736z"/>
					<path style="fill:#6C6387;" d="M425.271,431.739c0.13-6.344-1.022-8.001-1.022-8.001l0.002-0.002
						c0.238-0.013,0.493-0.039,0.775-0.087c0.967-0.166,2.381-0.235,4.002-0.252c0.73,2.21,2.889,9.019,3.067,12.817
						c0.154,3.298-2.57,7.916-4.027,10.347c-0.251-0.247-0.492-0.482-0.718-0.687C425.011,443.76,425.141,438.083,425.271,431.739z"
						/>
					<path style="fill:#332C47;" d="M434.34,447.247c3.642-0.332,5.656-3.054,10.692-1.394c5.03,1.658,6.88,2.389,7.546,0.538
						c0.041,0.089,0.091,0.184,0.128,0.27c1.89,4.433-3.382,6.003-3.382,6.003h-10.677c-5.325,0.111-8.962-4.675-11.3-6.79
						c-1.328-1.201-1.859-3.554-2.047-6.523C426.677,441.319,431.272,447.526,434.34,447.247z"/>
					<path style="fill:#6C6387;" d="M437.644,423.585c1.843,0.064,3.516,0.119,4.732,0.116c0.041,2.032,0.207,6.412,0.882,8.469
						c0.45,1.37,2.354,3.901,4.378,6.643c-0.011,0.16-0.038,0.325-0.179,0.424c-0.131,0.092-0.316,0.097-0.485,0.091
						c-1.928-0.071-3.684-1.091-4.845-2.413c-1.16-1.322-1.801-2.923-2.295-4.522c-0.461-1.495-0.81-3.015-1.044-4.547
						c-0.173-1.132-0.121-2.323-0.616-3.396C438.038,424.159,437.842,423.872,437.644,423.585z"/>
					<g>
						<path style="fill:#D7E5E6;" d="M430.471,436.34c-0.148,0-0.289-0.083-0.357-0.226c-0.094-0.197-0.009-0.432,0.188-0.526
							c4.681-2.218,11.84-1.048,12.145-0.998c0.215,0.036,0.36,0.24,0.324,0.456c-0.037,0.214-0.232,0.354-0.456,0.324
							c-0.07-0.012-7.221-1.178-11.676,0.933C430.586,436.327,430.528,436.34,430.471,436.34z"/>
						<path style="fill:#D7E5E6;" d="M429.892,432.863c-0.147,0-0.289-0.083-0.357-0.227c-0.094-0.197-0.009-0.432,0.188-0.526
							c4.677-2.218,11.84-1.047,12.144-0.997c0.215,0.036,0.36,0.241,0.324,0.456c-0.037,0.214-0.232,0.356-0.456,0.324
							c-0.07-0.012-7.221-1.181-11.675,0.932C430.006,432.85,429.948,432.863,429.892,432.863z"/>
						<path style="fill:#D7E5E6;" d="M428.946,430.354c-0.148,0-0.289-0.083-0.357-0.226c-0.094-0.197-0.009-0.432,0.188-0.526
							c4.682-2.218,11.84-1.049,12.145-0.999c0.215,0.036,0.36,0.24,0.324,0.456c-0.037,0.214-0.236,0.357-0.456,0.324
							c-0.07-0.012-7.221-1.178-11.676,0.932C429.06,430.342,429.003,430.354,428.946,430.354z"/>
						<path style="fill:#D7E5E6;" d="M428.62,427.248c-0.148,0-0.289-0.083-0.357-0.226c-0.094-0.197-0.009-0.432,0.188-0.526
							c4.681-2.219,11.84-1.048,12.144-0.997c0.215,0.037,0.36,0.241,0.324,0.456c-0.037,0.214-0.24,0.352-0.456,0.324
							c-0.071-0.011-7.22-1.181-11.674,0.931C428.734,427.235,428.676,427.248,428.62,427.248z"/>
					</g>
				</g>
				<g>
					<path style="fill:#4B455E;" d="M377.601,423.736c-0.239-0.013-0.493-0.039-0.775-0.087c-3.574-0.613-13.156,0.062-17.349,0.052
						c-0.041,2.032-0.207,6.412-0.882,8.469c-0.895,2.728-7.56,10.059-9.45,14.492c-1.89,4.433,3.382,6.003,3.382,6.003h10.676
						c5.325,0.111,8.962-4.675,11.3-6.79c2.338-2.115,2.208-7.791,2.078-14.136c-0.13-6.344,1.022-8.001,1.022-8.001
						L377.601,423.736z"/>
					<path style="fill:#6C6387;" d="M376.581,431.739c-0.13-6.344,1.022-8.001,1.022-8.001l-0.002-0.002
						c-0.239-0.013-0.493-0.039-0.775-0.087c-0.967-0.166-2.381-0.235-4.002-0.252c-0.73,2.21-2.889,9.019-3.066,12.817
						c-0.154,3.298,2.57,7.916,4.027,10.347c0.25-0.247,0.492-0.482,0.718-0.687C376.841,443.76,376.711,438.083,376.581,431.739z"
						/>
					<path style="fill:#332C47;" d="M367.511,447.247c-3.642-0.332-5.656-3.054-10.692-1.394c-5.03,1.658-6.88,2.389-7.546,0.538
						c-0.041,0.089-0.091,0.184-0.128,0.27c-1.89,4.433,3.382,6.003,3.382,6.003h10.676c5.325,0.111,8.962-4.675,11.3-6.79
						c1.328-1.201,1.859-3.554,2.046-6.523C375.175,441.319,370.58,447.526,367.511,447.247z"/>
					<path style="fill:#6C6387;" d="M364.208,423.585c-1.843,0.064-3.516,0.119-4.732,0.116c-0.041,2.032-0.207,6.412-0.882,8.469
						c-0.45,1.37-2.354,3.901-4.378,6.643c0.011,0.16,0.038,0.325,0.179,0.424c0.131,0.092,0.316,0.097,0.485,0.091
						c1.928-0.071,3.684-1.091,4.845-2.413c1.16-1.322,1.801-2.923,2.295-4.522c0.461-1.495,0.81-3.015,1.044-4.547
						c0.173-1.132,0.121-2.323,0.616-3.396C363.813,424.159,364.01,423.872,364.208,423.585z"/>
					<g>
						<path style="fill:#FFFFFF;" d="M371.38,436.34c-0.057,0-0.114-0.012-0.169-0.038c-4.455-2.111-11.603-0.944-11.675-0.933
							c-0.212,0.03-0.419-0.109-0.455-0.324c-0.037-0.216,0.109-0.42,0.324-0.456c0.302-0.049,7.464-1.219,12.144,0.998
							c0.197,0.094,0.282,0.329,0.188,0.526C371.67,436.256,371.528,436.34,371.38,436.34z"/>
						<path style="fill:#FFFFFF;" d="M371.96,432.863c-0.057,0-0.114-0.012-0.169-0.038c-4.454-2.11-11.603-0.944-11.675-0.932
							c-0.214,0.034-0.419-0.11-0.455-0.324c-0.036-0.215,0.109-0.42,0.324-0.456c0.303-0.049,7.463-1.221,12.145,0.997
							c0.197,0.094,0.281,0.329,0.188,0.526C372.25,432.779,372.108,432.863,371.96,432.863z"/>
						<path style="fill:#FFFFFF;" d="M372.905,430.354c-0.057,0-0.114-0.012-0.169-0.038c-4.457-2.112-11.602-0.945-11.674-0.932
							c-0.215,0.032-0.418-0.109-0.455-0.324c-0.036-0.215,0.109-0.42,0.324-0.456c0.303-0.049,7.464-1.219,12.144,0.999
							c0.197,0.094,0.281,0.329,0.188,0.526C373.195,430.271,373.053,430.354,372.905,430.354z"/>
						<path style="fill:#FFFFFF;" d="M373.231,427.248c-0.057,0-0.114-0.012-0.169-0.038c-4.457-2.112-11.603-0.943-11.674-0.931
							c-0.215,0.032-0.418-0.109-0.455-0.324c-0.037-0.215,0.109-0.419,0.324-0.456c0.302-0.049,7.464-1.22,12.144,0.997
							c0.197,0.094,0.281,0.329,0.188,0.526C373.522,427.164,373.38,427.248,373.231,427.248z"/>
					</g>
				</g>
				<g>
					<path style="fill:#533752;" d="M413.611,350.987c0.369,2.488,0.688,5.164,0.939,8.091c1.542,17.994,9.368,51.878,9.111,56.762
						c-0.257,4.884-3.085,8.997-1.028,10.025c2.056,1.028,10.539-2.314,16.708-1.028c6.169,1.285,4.627-3.599,3.342-6.169
						c-1.285-2.571-3.97-22.574-4.484-30.285c-0.514-7.711-3.679-72.542-5.615-82.223c-1.936-9.681-2.536-57.035-7.469-63.655
						c-4.933-6.62-31.158-5.495-31.158-5.495l-26.896,5.495c0,0-1.246,70.575-2.347,89.654c-1.101,19.079-1.101,72.645-4.036,81.45
						c-2.935,8.805-3.719,9.975-1.008,10.294c2.711,0.319,14.352-0.797,18.339,0c3.987,0.797,3.349-2.87,3.03-4.625
						c-0.319-1.754-2.392-3.668-2.233-5.9c0.159-2.233,7.726-48.387,7.726-66.124s7.969-79.429,11.31-80.2
						c3.342-0.771,5.912,37.787,8.483,51.667C408.476,330.343,411.71,338.181,413.611,350.987"/>
					<path style="fill:#452F49;" d="M375.529,410.147c-2.166,2.437-4.862,4.076-7.796,5.438c2.762,1.221,6.026,0.052,8.964,0.749
						c1.133,0.269,2.301,0.807,3.423,0.842c-0.664-1.171-1.413-2.424-1.315-3.799c0.037-0.513,0.465-3.347,1.101-7.618
						C377.907,406.196,376.827,408.685,375.529,410.147z"/>
					<path style="fill:#452F49;" d="M423.593,416.635c1.152-0.584,2.392-0.994,3.669-1.189c1.429-0.219,2.9-0.183,4.296-0.557
						c0.156-0.042,0.318-0.093,0.427-0.211c0.215-0.232,0.124-0.631-0.106-0.848c-0.23-0.217-0.552-0.3-0.859-0.375
						c-1.648-0.404-3.34-0.815-4.871-1.566c-0.987-0.484-1.991-1.458-3.117-1.644c0.434,2.701,0.676,4.671,0.627,5.596
						C423.646,416.107,423.622,416.372,423.593,416.635z"/>
					<path style="fill:#452F49;" d="M421.567,362.609c0.324-0.233,0.382-0.685,0.399-1.083c0.274-6.618-2.974-12.803-6.001-18.694
						c-1.034-2.012-5.046-12.213-7.693-15.302c1.866,7.437,3.956,14.131,5.34,23.457c0.369,2.488,0.688,5.164,0.939,8.091
						c0.02,0.234,0.046,0.481,0.068,0.721c1.689,1.615,3.772,2.754,6.082,2.956C420.998,362.781,421.324,362.784,421.567,362.609z"
						/>
					<path style="fill:#452F49;" d="M396.516,269.61c-0.134-0.319-0.29-0.615-0.499-0.851c-3.768-4.253-6.138,6.417-6.379,8.669
						c-1.509,14.106-2.796,28.236-3.859,42.383c-0.388,5.162-0.741,10.41,0.354,15.47c0.446-1.043,0.863-2.094,1.259-3.151
						C389.23,310.829,393.613,278.813,396.516,269.61z"/>
					<path style="fill:#452F49;" d="M425.114,242.503c-4.933-6.62-31.158-5.495-31.158-5.495l-26.896,5.495
						c0,0-0.109,6.195-0.292,15.409c0.456,0.098,0.959,0.143,1.524,0.121c5.194-0.199,11.076-2.691,16.199-3.758
						c5.403-1.125,10.834-2.118,16.286-2.976c8.863-1.395,18.261-2.348,26.854-0.35
						C426.938,246.896,426.117,243.849,425.114,242.503z"/>
				</g>
				<g>
					<path style="fill:#383A4F;" d="M321.168,227.334c1.394,0.376,2.859,1.104,3.862,0.065c0.503-0.521,0.846-1.284,1.545-1.472
						c0.572-0.154,1.196,0.177,1.517,0.674c0.321,0.497,0.383,1.122,0.327,1.711c-0.216,2.235-1.932,3.993-2.887,6.025
						c-1.258,2.677-0.898,5.719-0.374,8.63c0.181,1.006,0.548,2.748,1.081,3.619c0.396,0.646,6.277,5.592,7.603,8.688
						c0,0,17.552,31.953,10.562,55.981c-6.99,24.028-31.656,15.717-36.916,8.956c-6.648-8.545-6.772-23.154,1.966-39.756
						c0,0,12.107-20.833,11.625-29.026c-0.482-8.192-1.446-11.083-5.622-12.69c-4.176-1.606-6.586-2.249-6.586-4.819
						c0-2.57,1.835-1.849,3.733-1.484c1.898,0.365,3.431-0.292,4.453-2.482C318.079,227.767,319.293,226.828,321.168,227.334z"/>
					<path style="fill:#2D2F40;" d="M344.403,311.257c2.561-8.805,1.822-18.67-0.136-27.642c-0.143,3.315-0.54,6.613-1.348,9.845
						c-2.418,9.668-9.206,18.893-18.885,21.268c-6.963,1.709-14.229-0.326-20.675-3.673c0.76,3.516,2.147,6.611,4.128,9.158
						C312.747,326.974,337.413,335.285,344.403,311.257z"/>
					<path style="fill:#2D2F40;" d="M326.935,260.61c1.036-0.947,1.202-2.699,0.363-3.824c1.249-0.309,1.885-1.832,1.622-3.092
						c-0.264-1.26-1.182-2.275-2.144-3.13c-1.314-1.167-4.182-3.763-6.045-3.266c0.146,1.204,0.256,2.571,0.348,4.132
						c0.175,2.975-1.312,7.616-3.274,12.321c0.367,1.09,0.885,2.117,1.632,3.012c0.547,0.656,1.22,1.241,2.032,1.505
						c0.813,0.264,1.782,0.154,2.403-0.434c1.515-1.434,0.063-4.318,1.395-5.923C325.718,261.368,326.412,261.088,326.935,260.61z"
						/>
				</g>
				<path style="fill:#CB7D75;" d="M321.319,258.717c-1.634-0.659-3.702-2.427-4.637-3.919c0,0-1.499,2.296-0.345,3.93
					s3.411,2.787,4.228,2.547C321.382,261.035,321.69,259.236,321.319,258.717C321.319,258.718,321.319,258.717,321.319,258.717z"/>
				<g>
					<path style="fill:#CB7D75;" d="M318.477,240.707c0,0-2.638,4.515-1.518,7.618c1.12,3.103,6.809,8.016,8.274,7.929
						c1.465-0.086,1.81-1.982,1.379-3.189c-0.431-1.207-5.085-5.344-5.602-7.671C320.493,243.067,318.477,240.707,318.477,240.707z"
						/>
					<path style="fill:#CB7D75;" d="M324.356,255.99c-2.14-1.038-6.438-5.01-7.396-7.666c0,0-1.635,4.306-0.277,6.474
						c1.358,2.168,5.11,4.919,6.444,4.002c1.334-0.917,1.238-2.802,1.238-2.802L324.356,255.99z"/>
					<path style="fill:#B16C6D;" d="M324.364,255.999l-0.008-0.008c-2.14-1.038-6.438-5.01-7.397-7.666c0,0-0.173,0.46-0.36,1.15
						c1.252,2.632,5.146,6.199,7.161,7.177l0.008,0.009c0,0,0.051,1.106-0.524,2.037
						C324.441,257.751,324.364,255.999,324.364,255.999z"/>
					<path style="fill:#B16C6D;" d="M321.36,259.494C321.36,259.494,321.36,259.494,321.36,259.494
						c0.041,0.057,0.069,0.137,0.095,0.22c0.047-0.413,0.006-0.798-0.135-0.995c0,0,0,0,0,0c-1.634-0.659-3.702-2.427-4.637-3.919
						c0,0-0.14,0.226-0.299,0.565C317.462,256.966,319.627,258.795,321.36,259.494z"/>
				</g>
				<g>
					<path style="fill:#40AD97;" d="M380.632,128.542c0,0-24.324,8.376-29.279,15.156c-4.955,6.78-7.041,29.434-10.17,38.578
						c0,0,4.766,6.537,19.725,6.276c0,0,4.267-11.996,6.092-12.257c1.826-0.261,3.842,62.855,3.842,62.855s32.565,3.502,51.474,0
						c0,0,1.751-74.668,3.852-74.976c2.101-0.308,15.193,11.826,15.193,11.826s10.837-3.559,17.021-12.902
						c0,0-3.94-2.719-6.829-5.608s-15.124-18.759-19.542-19.915c-4.418-1.156-25.442-9.88-28.1-10.191
						C401.253,127.073,380.632,128.542,380.632,128.542z"/>
					<path style="fill:#78D097;" d="M363.524,181.931c-2.023-0.189-4.038-0.459-5.982-1.037c-1.286-0.382-2.529-0.895-3.754-1.442
						c-3.644-1.627-7.145-3.572-10.457-5.797c-0.221,1.081-0.442,2.123-0.666,3.114c3.434,2.342,7.069,4.391,10.864,6.086
						c1.225,0.547,2.468,1.06,3.754,1.442c1.591,0.473,3.232,0.733,4.884,0.918C362.566,184.199,363.033,183.054,363.524,181.931z"
						/>
					<path style="fill:#409A97;" d="M429.654,153.645c0.722-4.205,2.411-8.015,5.243-11.225c0.426-0.483,1.049-1.005,1.717-1.564
						c-1.851-1.741-3.48-2.988-4.604-3.281c-0.842-0.22-2.288-0.716-4.092-1.375c-2.273,1.828-4.005,4.347-4.671,7.201
						c-0.456,1.954-0.464,3.982-0.464,5.989c0.001,4.836,0.038,9.671,0.109,14.506c0.016,1.055,0.053,2.178,0.647,3.051
						c0.436,0.641,1.063,1.013,1.78,1.214c0.273-2.481,0.556-3.944,0.846-3.986c0.511-0.075,1.68,0.595,3.147,1.64
						C429.068,161.756,428.965,157.659,429.654,153.645z"/>
					<path style="fill:#409A97;" d="M372.015,175.458c0.463-1.097,0.284-2.349,0.051-3.516c-0.507-2.536-1.229-5.024-1.992-7.495
						c-1.292-4.186-2.703-8.334-4.231-12.44c-1.572-4.223-3.304-8.465-6.105-11.994c-0.475-0.599-1.025-1.179-1.668-1.573
						c-1.765,1.028-3.338,2.076-4.595,3.112c0.032,0.124,0.042,0.248,0.093,0.372c1.179,2.862,2.712,5.538,3.777,8.473
						c3.533,9.739,5.634,20.133,4.84,30.462c-0.119,1.551-0.299,3.132-0.138,4.667c1.395-3.572,3.725-9.054,4.954-9.23
						c0.263-0.038,0.53,1.243,0.794,3.455c0.629-0.622,1.276-1.227,1.956-1.793C370.623,177.23,371.573,176.505,372.015,175.458z"/>
					<path style="fill:#337E7C;" d="M393.956,137.774c0.019,0.7,1.808,70.355,1.185,102.87c0.393,0.009,0.789,0.016,1.185,0.023
						c0.623-32.542-1.167-102.224-1.185-102.924L393.956,137.774z"/>
					<path style="fill:#CB7D75;" d="M403.115,131.329c-2.25-8.537-0.846-16.497-0.846-16.497h-17.684c0,0,1.404,7.96-0.846,16.497
						c0,0,6.057,8.79,9.688,8.604C397.058,139.747,403.115,131.329,403.115,131.329z"/>
					<path style="fill:#B56C75;" d="M384.585,114.832c0,0,0.676,3.856,0.332,9.075c2.453-1.436,5.114-2.506,7.893-3.105
						c1.53-0.329,3.087-0.518,4.641-0.706c1.469-0.178,2.939-0.364,4.409-0.539c0.086-2.868,0.409-4.725,0.409-4.725H384.585z"/>
					<g>
						<path style="fill:#78D097;" d="M384.624,123.402c1.122,1.228,1.919,2.228,3.429,2.924c0.369,0.17,0.746,0.322,1.124,0.474
							c0.648,0.261,1.297,0.522,1.945,0.784c-1.09,2.714-2.647,5.337-4.531,7.574c-2.704-1.383-4.845-3.789-5.959-6.615
							C381.388,126.707,383.153,124.734,384.624,123.402z"/>
						<path style="fill:#78D097;" d="M402.23,123.402c-1.121,1.228-1.919,2.228-3.429,2.924c-0.369,0.17-0.746,0.322-1.124,0.474
							c-0.648,0.261-1.297,0.522-1.945,0.784c1.09,2.714,2.647,5.337,4.531,7.574c2.704-1.383,4.845-3.789,5.959-6.615
							C405.467,126.707,403.701,124.734,402.23,123.402z"/>
					</g>
					<path style="fill:#FFAD35;" d="M373.504,131.218c0,0,4.647,20.478,17.617,32.55c0,0,1.926,68.577,0,82.189
						c0,0-19.439,1.17-24.063-3.453c0,0,1.979-60.534,0-65.482c-1.979-4.948-9.111-33.241-13.132-35.836
						C353.927,141.185,364.665,132.292,373.504,131.218z"/>
					<path style="fill:#FFAD35;" d="M400.978,162.915c11.925-11.979,15.59-31.697,15.59-31.697l15.443,6.357
						c0,0-6.311,26.329-6.703,30.698c-0.391,4.369-0.342,61.943,0.459,71.362c0,0,2.014,5.433-0.792,5.433
						c-2.806,0-23.997,0-23.997,0V162.915z"/>
					<path style="fill:#FFDF4D;" d="M391.909,205.539c-0.05-5.155-0.123-10.296-0.204-15.125c-2.543,0.233-4.926,0.338-7.151,0.358
						c0.246-14.539,0.243-28.017-0.345-35.181c-3.491-5.129-6.014-10.58-7.726-15.025c-0.137,8.144-0.523,28.433-1.269,49.761
						c-3.325-0.363-5.821-0.87-7.325-1.23c0.068,4.432,0.059,9.687,0.006,15.147c1.412,0.339,3.709,0.803,6.732,1.158
						c-0.667,15.37-1.536,29.915-2.649,39.404c3.252,0.815,7.337,1.137,10.901,1.24c0.271-6.643,0.902-22.875,1.347-40.128
						C386.602,205.906,389.164,205.797,391.909,205.539z"/>
					<path style="fill:#FFDF4D;" d="M425.114,207.001c-0.034-5.748-0.048-11.579-0.044-16.921c-1.947,0.447-3.914,0.807-5.892,1.083
						c0.155-26.011,1.309-49.313,1.798-58.131l-4.408-1.815c0,0-1.923,10.329-7.504,20.577c-0.166,9.503-0.529,24.561-0.927,40.017
						c-2.392-0.045-4.782-0.197-7.158-0.487v17.484c2.221,0.303,4.458,0.462,6.697,0.505c-0.414,15.427-0.801,29.212-0.986,35.753
						c4.322,0,10.168,0,14.145,0c-0.956-11.427-1.429-24.068-1.599-36.675C421.216,208.032,423.179,207.569,425.114,207.001z"/>
					<path style="fill:#78D097;" d="M436.827,171.935c0.846,0.74,1.627,1.434,2.296,2.034c7.62-3.12,14.87-9.413,17.674-12.022
						c-0.695-0.522-1.553-1.188-2.457-1.939C449.805,163.662,441.145,169.218,436.827,171.935z"/>
				</g>
				<g>
					<path style="fill:#CB7D75;" d="M342.548,183.62l-0.01-0.002c0,0-0.523,7.101-3.912,13.072
						c-3.389,5.971-12.749,25.336-14.201,30.662c-1.452,5.326,0.845,17.391,1.555,18.738c0.71,1.347,3.123,1.279,3.898,0.711
						c0.775-0.568,0.076-9.723,0.005-10.859c-0.071-1.136,0.595-2.363,0.595-2.363c5.25-4.572,21.337-27.771,23.448-29.803
						c1.717-1.652,4.17-11.584,5.028-15.243C349.643,188.314,344.696,185.395,342.548,183.62z"/>
					<path style="fill:#B56C75;" d="M342.548,183.62l-0.01-0.002c0,0-0.078,1.041-0.361,2.656c2.176,0.649,4.234,1.334,6.262,2.509
						c3.243,1.88,6.086,4.379,8.603,7.166c0.819-2.858,1.528-5.77,1.914-7.416C349.643,188.314,344.697,185.395,342.548,183.62z"/>
				</g>
				<g>
					<path style="fill:#CB7D75;" d="M409.086,90.868c0,0,0,16.724-4.143,22.162c-4.143,5.438-6.759,5.848-8.612,5.848h-5.449
						c-1.853,0-4.47-0.41-8.612-5.848c-4.143-5.438-4.143-22.162-4.143-22.162v-4.822l2.022-1.608c7.77-6.181,19.146-6.181,26.916,0
						l2.022,1.608V90.868z"/>
					<path style="fill:#E4E7FF;" d="M407.591,106.184c-2.469-1.885-8.779-6.392-13.267-6.843
						c-4.682-0.471-12.167,5.025-14.672,6.986c0.603,2.716,1.443,5.163,2.617,6.703c4.142,5.438,6.759,5.848,8.612,5.848h5.449
						c1.787,0,4.288-0.396,8.178-5.298l1.512-2.396C406.674,109.77,407.187,108.037,407.591,106.184z"/>
					<g>
						<path style="fill:#C4C7DB;" d="M390.968,108.311c-0.173-0.549-3.702,0.045-5.484,0.507c-0.616,0.16-4.078,0.955-4.415,2.09
							c0.108,0.247,0.22,0.483,0.336,0.711c1.025,0.326,3.903-1.791,4.602-2.028C387.641,109.036,390.968,109.425,390.968,108.311z"
							/>
						<path style="fill:#C4C7DB;" d="M404.214,113.94c-0.319-0.028-0.589-0.043-0.746-0.059c-1.656-0.174-3.32-0.281-4.985-0.319
							c-0.796-0.019-1.593-0.022-2.389-0.009c-0.555,0.009-0.722,0.846,3.047,0.875c0.769,0.006,1.472,0.451,2.223,0.618
							c0.563,0.125,1.139,0.172,1.716,0.206C403.443,114.861,403.823,114.418,404.214,113.94z"/>
						<path style="fill:#C4C7DB;" d="M398.424,105.184c0.713,0.137,1.448,0.329,1.998,0.802c-0.613,0.226-1.285,0.215-1.937,0.191
							c-1.836-0.07-3.666-0.233-5.496-0.395c-0.408-0.036-1.246-0.351-0.812-0.878c0.268-0.324,1.136-0.195,1.493-0.184
							C395.258,104.768,396.861,104.884,398.424,105.184z"/>
					</g>
					<path style="fill:#B26675;" d="M378.198,93.721c-1.215-0.963-3.151-2.142-4.195-0.702c-1.407,1.94,0.806,8.061,4.867,8.784
						C378.466,98.752,378.282,95.792,378.198,93.721z"/>
					<path style="fill:#915675;" d="M378.45,95.311c-0.933-0.74-2.419-1.645-3.221-0.539c-1.081,1.49,0.619,6.189,3.737,6.745
						C378.656,99.174,378.514,96.901,378.45,95.311z"/>
					<path style="fill:#B26675;" d="M408.99,93.721c1.215-0.963,3.151-2.142,4.195-0.702c1.407,1.94-0.806,8.061-4.867,8.784
						C408.722,98.752,408.906,95.792,408.99,93.721z"/>
					<path style="fill:#915675;" d="M408.843,95.487c0.949-0.753,2.462-1.674,3.278-0.549c1.1,1.516-0.63,6.299-3.803,6.864
						C408.633,99.418,408.777,97.105,408.843,95.487z"/>
					<g>
						<path style="fill:#453034;" d="M376.413,87.958c0,0,0.931,9.49,2.646,9.429c1.715-0.061,3.783-12.471,3.331-12.896
							C381.938,84.065,376.413,87.958,376.413,87.958z"/>
						<path style="fill:#453034;" d="M410.799,87.958c0,0-0.931,9.49-2.646,9.429c-1.715-0.061-3.783-12.471-3.331-12.896
							C405.275,84.065,410.799,87.958,410.799,87.958z"/>
					</g>
					<g>
						<path style="fill:#FFAD35;" d="M393.606,64.664c-16.279,0.934-16.093,15.447-16.093,15.447H409.7
							C409.7,80.112,409.886,65.598,393.606,64.664z"/>
						<path style="fill:#FFCC35;" d="M399.529,80.112c-0.932-6.774-3.982-13.35-5.323-15.396c-0.201-0.016-0.393-0.039-0.6-0.051
							c-0.169,0.01-0.325,0.029-0.49,0.042c-1.136,1.639-4.01,6.435-6.07,15.405H399.529z"/>
						<path style="fill:#FFDF4D;" d="M409.086,79.377c0,0,7.966,6.344,5.56,9.132c-1.417,1.642-9.483-3.694-21.039-3.591
							c-11.557-0.103-19.622,5.233-21.039,3.591c-2.406-2.787,5.56-9.132,5.56-9.132l0,0C388.22,76.5,398.993,76.5,409.086,79.377
							L409.086,79.377z"/>
						<path style="fill:#FFB54D;" d="M414.646,86.87c-1.417,1.642-9.483-3.694-21.04-3.591c-11.557-0.103-19.622,5.233-21.039,3.591
							c-0.133-0.154-0.224-0.324-0.297-0.499c-0.239,0.807-0.208,1.553,0.297,2.137c1.417,1.642,9.483-3.694,21.039-3.591
							c11.557-0.103,19.622,5.233,21.04,3.591c0.505-0.585,0.536-1.33,0.296-2.137C414.87,86.546,414.779,86.715,414.646,86.87z"/>
						<path style="fill:#AD8035;" d="M395.077,63.435c0,0.765-0.659,1.384-1.471,1.384c-0.812,0-1.471-0.62-1.471-1.384
							c0-0.764,0.659-1.384,1.471-1.384C394.419,62.051,395.077,62.671,395.077,63.435z"/>
					</g>
					<g>
						<ellipse style="fill:#453034;" cx="386.386" cy="95.493" rx="1.053" ry="1.895"/>
						<ellipse style="fill:#453034;" cx="400.857" cy="95.493" rx="1.053" ry="1.895"/>
					</g>
					<g>
						<path style="fill:#453034;" d="M382.961,92.55c-0.213,0-0.411-0.149-0.482-0.384c-0.088-0.293,0.056-0.61,0.323-0.707
							c3.211-1.173,6.04-0.399,6.158-0.365c0.271,0.076,0.435,0.38,0.366,0.68c-0.069,0.299-0.344,0.479-0.617,0.405
							c-0.026-0.007-2.67-0.724-5.588,0.343C383.067,92.541,383.014,92.55,382.961,92.55z"/>
						<path style="fill:#453034;" d="M404.52,92.55c-0.055,0-0.111-0.009-0.166-0.028c-3.026-1.067-5.771-0.351-5.797-0.343
							c-0.285,0.074-0.569-0.105-0.64-0.405c-0.071-0.299,0.099-0.603,0.38-0.68c0.122-0.033,3.059-0.806,6.389,0.365
							c0.276,0.097,0.425,0.414,0.335,0.707C404.947,92.401,404.741,92.55,404.52,92.55z"/>
					</g>
				</g>
				<g>
					<path style="fill:#CB7D75;" d="M468.387,177.866c-2.581-3.269-7.651-9.152-11.563-12.65c0,0-6.346,7.493-13.361,9.945
						c1.444,1.661,5.548,6.212,9.401,8.863c0,0-9.295,12.582-13.426,17.746c-4.131,5.164-8.52,6.326-9.94,6.197
						c-1.42-0.129-4.383-0.965-4.383-0.965s-0.136,4.838-1.685,5.871c-1.549,1.033-12.118,9.057-14.141,10.287
						c-2.023,1.23-1.393,3.854-0.013,4.161c0,0-2.625,1.891-5.23,3.397c-1.617,0.935-0.354,3.498,1.491,3.4s4.661-2.282,4.661-2.282
						s-0.803,1.168-0.204,2.122c0.6,0.954,1.937,1.21,3.052,0.843c1.116-0.367,3.626-2.37,3.626-2.37s-0.18,1.539,0.564,1.945
						c0.744,0.406,3.696,0.112,6.126-1.692c2.43-1.804,8.443-5.339,10.764-8.553c2.322-3.214,3.75-6.905,9.525-10.775
						c5.774-3.869,25.211-17.182,27.233-22.413C472.904,185.713,471.953,182.384,468.387,177.866z"/>
					<g>
						<path style="fill:#9C4860;" d="M409.275,227.693c0.067,0,0.134-0.018,0.192-0.053c0.067-0.041,6.817-4.107,10.99-7.414
							c0.162-0.128,0.188-0.362,0.061-0.524c-0.13-0.162-0.363-0.187-0.525-0.06c-3.875,3.071-10.015,6.815-10.822,7.305h-0.531
							c0.185,0.176,0.392,0.32,0.634,0.373c0,0-0.201,0.144-0.528,0.373H409.275z"/>
						<path style="fill:#9C4860;" d="M424.852,226.331c-0.146-0.146-0.382-0.146-0.528,0c-2.555,2.555-7.794,5.75-7.846,5.781
							c-0.045,0.028-0.085,0.066-0.115,0.11l-0.621,0.919c0.538-0.398,0.931-0.709,0.931-0.709s-0.031,0.305-0.006,0.675l0.27-0.399
							c0.663-0.407,5.43-3.364,7.916-5.849C424.997,226.712,424.997,226.476,424.852,226.331z"/>
						<path style="fill:#9C4860;" d="M410.197,231.836c0,0-0.298,0.438-0.394,0.995l0.64-0.71c0.647-0.424,8.709-5.719,12.957-9.285
							c0.157-0.133,0.178-0.368,0.045-0.525c-0.134-0.16-0.369-0.18-0.526-0.046c-4.371,3.669-12.839,9.203-12.925,9.258
							c-0.026,0.018-0.051,0.039-0.073,0.063l-1.037,1.15C409.645,232.258,410.197,231.836,410.197,231.836z"/>
					</g>
					<path style="fill:#533752;" d="M439.983,216.215l-6.473-8.981c-0.316-0.439-0.217-1.052,0.222-1.368l1.372-0.989
						c0.439-0.316,1.052-0.217,1.368,0.222l6.473,8.982c0.317,0.439,0.217,1.052-0.222,1.368l-1.372,0.989
						C440.912,216.754,440.3,216.654,439.983,216.215z"/>
					<path style="fill:#B56C75;" d="M450.115,181.873c0.423-2.175,1.32-5.046,1.505-5.572c0.914-2.592,2.219-5.049,3.861-7.254
						c0.806-1.083,1.696-1.937,2.547-2.707c-0.408-0.39-0.815-0.777-1.204-1.124c0,0-6.346,7.493-13.361,9.945
						C444.563,176.428,447.212,179.37,450.115,181.873z"/>
				</g>
			</g>
		</g>
	</g>
</g>
</svg>
